<?xml version="1.0" encoding="utf-8" standalone="no"?>
<!DOCTYPE svg PUBLIC "-//W3C//DTD SVG 1.1//EN"
  "http://www.w3.org/Graphics/SVG/1.1/DTD/svg11.dtd">
<svg xmlns:xlink="http://www.w3.org/1999/xlink" width="398.199pt" height="233.676pt" viewBox="0 0 398.199 233.676" xmlns="http://www.w3.org/2000/svg" version="1.1">
 <metadata>
  <rdf:RDF xmlns:dc="http://purl.org/dc/elements/1.1/" xmlns:cc="http://creativecommons.org/ns#" xmlns:rdf="http://www.w3.org/1999/02/22-rdf-syntax-ns#">
   <cc:Work>
    <dc:type rdf:resource="http://purl.org/dc/dcmitype/StillImage"/>
    <dc:date>2026-05-05T22:14:03.354140</dc:date>
    <dc:format>image/svg+xml</dc:format>
    <dc:creator>
     <cc:Agent>
      <dc:title>Matplotlib v3.10.8, https://matplotlib.org/</dc:title>
     </cc:Agent>
    </dc:creator>
   </cc:Work>
  </rdf:RDF>
 </metadata>
 <defs>
  <style type="text/css">*{stroke-linejoin: round; stroke-linecap: butt}</style>
 </defs>
 <g id="figure_1">
  <g id="patch_1">
   <path d="M 0 233.676 
L 398.199 233.676 
L 398.199 0 
L 0 0 
z
" style="fill: #ffffff"/>
  </g>
  <g id="axes_1">
   <g id="patch_2">
    <path d="M 22.713747 59.779152 
L 154.509813 59.779152 
Q 160.428798 59.779152 160.428798 56.328012 
L 160.428798 30.099348 
Q 160.428798 26.648208 154.509813 26.648208 
L 22.713747 26.648208 
Q 16.794762 26.648208 16.794762 30.099348 
L 16.794762 56.328012 
Q 16.794762 59.779152 22.713747 59.779152 
z
" clip-path="url(#pf16d9aa85c)" style="fill: #eef4fb; stroke: #d9dee5; stroke-width: 0.9; stroke-linejoin: miter"/>
   </g>
   <g id="patch_3">
    <path d="M 22.713747 103.493592 
L 154.509813 103.493592 
Q 160.428798 103.493592 160.428798 100.042452 
L 160.428798 73.813788 
Q 160.428798 70.362648 154.509813 70.362648 
L 22.713747 70.362648 
Q 16.794762 70.362648 16.794762 73.813788 
L 16.794762 100.042452 
Q 16.794762 103.493592 22.713747 103.493592 
z
" clip-path="url(#pf16d9aa85c)" style="fill: #eef4fb; stroke: #d9dee5; stroke-width: 0.9; stroke-linejoin: miter"/>
   </g>
   <g id="patch_4">
    <path d="M 22.713747 142.606512 
L 154.509813 142.606512 
Q 160.428798 142.606512 160.428798 139.155372 
L 160.428798 112.926708 
Q 160.428798 109.475568 154.509813 109.475568 
L 22.713747 109.475568 
Q 16.794762 109.475568 16.794762 112.926708 
L 16.794762 139.155372 
Q 16.794762 142.606512 22.713747 142.606512 
z
" clip-path="url(#pf16d9aa85c)" style="fill: #eef4fb; stroke: #d9dee5; stroke-width: 0.9; stroke-linejoin: miter"/>
   </g>
   <g id="patch_5">
    <path d="M 22.713747 202.426272 
L 154.509813 202.426272 
Q 160.428798 202.426272 160.428798 198.975132 
L 160.428798 165.844188 
Q 160.428798 162.393048 154.509813 162.393048 
L 22.713747 162.393048 
Q 16.794762 162.393048 16.794762 165.844188 
L 16.794762 198.975132 
Q 16.794762 202.426272 22.713747 202.426272 
z
" clip-path="url(#pf16d9aa85c)" style="fill: #fff5df; stroke: #d9dee5; stroke-width: 0.9; stroke-linejoin: miter"/>
   </g>
   <g id="patch_6">
    <path d="M 204.229287 59.779152 
L 276.835503 59.779152 
Q 282.754488 59.779152 282.754488 56.328012 
L 282.754488 30.099348 
Q 282.754488 26.648208 276.835503 26.648208 
L 204.229287 26.648208 
Q 198.310302 26.648208 198.310302 30.099348 
L 198.310302 56.328012 
Q 198.310302 59.779152 204.229287 59.779152 
z
" clip-path="url(#pf16d9aa85c)" style="fill: #eef8f2; stroke: #d9dee5; stroke-width: 0.9; stroke-linejoin: miter"/>
   </g>
   <g id="patch_7">
    <path d="M 298.933047 59.779152 
L 371.539263 59.779152 
Q 377.458248 59.779152 377.458248 56.328012 
L 377.458248 30.099348 
Q 377.458248 26.648208 371.539263 26.648208 
L 298.933047 26.648208 
Q 293.014062 26.648208 293.014062 30.099348 
L 293.014062 56.328012 
Q 293.014062 59.779152 298.933047 59.779152 
z
" clip-path="url(#pf16d9aa85c)" style="fill: #eef8f2; stroke: #d9dee5; stroke-width: 0.9; stroke-linejoin: miter"/>
   </g>
   <g id="patch_8">
    <path d="M 204.229287 126.501192 
L 276.835503 126.501192 
Q 282.754488 126.501192 282.754488 123.050052 
L 282.754488 96.821388 
Q 282.754488 93.370248 276.835503 93.370248 
L 204.229287 93.370248 
Q 198.310302 93.370248 198.310302 96.821388 
L 198.310302 123.050052 
Q 198.310302 126.501192 204.229287 126.501192 
z
" clip-path="url(#pf16d9aa85c)" style="fill: #eef8f2; stroke: #d9dee5; stroke-width: 0.9; stroke-linejoin: miter"/>
   </g>
   <g id="patch_9">
    <path d="M 298.933047 126.501192 
L 371.539263 126.501192 
Q 377.458248 126.501192 377.458248 123.050052 
L 377.458248 96.821388 
Q 377.458248 93.370248 371.539263 93.370248 
L 298.933047 93.370248 
Q 293.014062 93.370248 293.014062 96.821388 
L 293.014062 123.050052 
Q 293.014062 126.501192 298.933047 126.501192 
z
" clip-path="url(#pf16d9aa85c)" style="fill: #eef8f2; stroke: #d9dee5; stroke-width: 0.9; stroke-linejoin: miter"/>
   </g>
   <g id="patch_10">
    <path d="M 214.094262 202.426272 
L 361.674288 202.426272 
Q 367.593273 202.426272 367.593273 198.975132 
L 367.593273 165.844188 
Q 367.593273 162.393048 361.674288 162.393048 
L 214.094262 162.393048 
Q 208.175277 162.393048 208.175277 165.844188 
L 208.175277 198.975132 
Q 208.175277 202.426272 214.094262 202.426272 
z
" clip-path="url(#pf16d9aa85c)" style="fill: #fff5df; stroke: #d9dee5; stroke-width: 0.9; stroke-linejoin: miter"/>
   </g>
   <g id="line2d_1">
    <path d="M 181.342545 204.26688 
L 181.342545 27.10836 
" clip-path="url(#pf16d9aa85c)" style="fill: none; stroke: #d9dee5; stroke-linecap: square"/>
   </g>
   <g id="text_1">
    <!-- Naive leaderboard -->
    <g style="fill: #1f2933" transform="translate(49.033655 15.545206) scale(0.1 -0.1)">
     <defs>
      <path id="TimesNewRomanPS-BoldMT-4e" d="M 1594 4238 
L 3684 1609 
L 3684 3431 
Q 3684 3813 3575 3947 
Q 3425 4128 3072 4122 
L 3072 4238 
L 4472 4238 
L 4472 4122 
Q 4203 4088 4111 4033 
Q 4019 3978 3967 3854 
Q 3916 3731 3916 3431 
L 3916 -97 
L 3809 -97 
L 944 3431 
L 944 738 
Q 944 372 1111 244 
Q 1278 116 1494 116 
L 1594 116 
L 1594 0 
L 91 0 
L 91 116 
Q 441 119 578 259 
Q 716 400 716 738 
L 716 3728 
L 625 3841 
Q 491 4009 387 4062 
Q 284 4116 91 4122 
L 91 4238 
L 1594 4238 
z
" transform="scale(0.015625)"/>
      <path id="TimesNewRomanPS-BoldMT-61" d="M 1828 431 
Q 1294 -41 869 -41 
Q 619 -41 453 123 
Q 288 288 288 534 
Q 288 869 575 1136 
Q 863 1403 1828 1847 
L 1828 2141 
Q 1828 2472 1792 2558 
Q 1756 2644 1656 2708 
Q 1556 2772 1431 2772 
Q 1228 2772 1097 2681 
Q 1016 2625 1016 2550 
Q 1016 2484 1103 2388 
Q 1222 2253 1222 2128 
Q 1222 1975 1108 1867 
Q 994 1759 809 1759 
Q 613 1759 480 1878 
Q 347 1997 347 2156 
Q 347 2381 525 2586 
Q 703 2791 1022 2900 
Q 1341 3009 1684 3009 
Q 2100 3009 2342 2832 
Q 2584 2656 2656 2450 
Q 2700 2319 2700 1847 
L 2700 713 
Q 2700 513 2715 461 
Q 2731 409 2762 384 
Q 2794 359 2834 359 
Q 2916 359 3000 475 
L 3094 400 
Q 2938 169 2770 64 
Q 2603 -41 2391 -41 
Q 2141 -41 2000 76 
Q 1859 194 1828 431 
z
M 1828 659 
L 1828 1638 
Q 1450 1416 1266 1163 
Q 1144 994 1144 822 
Q 1144 678 1247 569 
Q 1325 484 1466 484 
Q 1622 484 1828 659 
z
" transform="scale(0.015625)"/>
      <path id="TimesNewRomanPS-BoldMT-69" d="M 919 4338 
Q 1122 4338 1262 4195 
Q 1403 4053 1403 3853 
Q 1403 3653 1261 3512 
Q 1119 3372 919 3372 
Q 719 3372 578 3512 
Q 438 3653 438 3853 
Q 438 4053 578 4195 
Q 719 4338 919 4338 
z
M 1356 2922 
L 1356 606 
Q 1356 297 1428 211 
Q 1500 125 1709 113 
L 1709 0 
L 131 0 
L 131 113 
Q 325 119 419 225 
Q 481 297 481 606 
L 481 2313 
Q 481 2622 409 2708 
Q 338 2794 131 2806 
L 131 2922 
L 1356 2922 
z
" transform="scale(0.015625)"/>
      <path id="TimesNewRomanPS-BoldMT-76" d="M 1534 -88 
L 550 2178 
Q 372 2588 272 2697 
Q 200 2778 59 2806 
L 59 2922 
L 1613 2922 
L 1613 2806 
Q 1466 2806 1413 2753 
Q 1338 2684 1338 2591 
Q 1338 2475 1475 2156 
L 1956 1059 
L 2341 2006 
Q 2506 2413 2506 2581 
Q 2506 2678 2436 2739 
Q 2366 2800 2188 2806 
L 2188 2922 
L 3144 2922 
L 3144 2806 
Q 3006 2788 2918 2703 
Q 2831 2619 2656 2206 
L 1681 -88 
L 1534 -88 
z
" transform="scale(0.015625)"/>
      <path id="TimesNewRomanPS-BoldMT-65" d="M 2691 1566 
L 1088 1566 
Q 1116 984 1397 647 
Q 1613 388 1916 388 
Q 2103 388 2256 492 
Q 2409 597 2584 869 
L 2691 800 
Q 2453 316 2165 114 
Q 1878 -88 1500 -88 
Q 850 -88 516 413 
Q 247 816 247 1413 
Q 247 2144 642 2576 
Q 1038 3009 1569 3009 
Q 2013 3009 2339 2645 
Q 2666 2281 2691 1566 
z
M 1922 1775 
Q 1922 2278 1867 2465 
Q 1813 2653 1697 2750 
Q 1631 2806 1522 2806 
Q 1359 2806 1256 2647 
Q 1072 2369 1072 1884 
L 1072 1775 
L 1922 1775 
z
" transform="scale(0.015625)"/>
      <path id="TimesNewRomanPS-BoldMT-20" transform="scale(0.015625)"/>
      <path id="TimesNewRomanPS-BoldMT-6c" d="M 1359 4238 
L 1359 606 
Q 1359 297 1431 211 
Q 1503 125 1713 113 
L 1713 0 
L 134 0 
L 134 113 
Q 328 119 422 225 
Q 484 297 484 606 
L 484 3631 
Q 484 3938 412 4023 
Q 341 4109 134 4122 
L 134 4238 
L 1359 4238 
z
" transform="scale(0.015625)"/>
      <path id="TimesNewRomanPS-BoldMT-64" d="M 3056 4238 
L 3056 875 
Q 3056 534 3075 472 
Q 3100 369 3170 319 
Q 3241 269 3416 256 
L 3416 153 
L 2181 -88 
L 2181 375 
Q 1959 106 1786 9 
Q 1613 -88 1394 -88 
Q 834 -88 509 413 
Q 247 819 247 1409 
Q 247 1881 409 2254 
Q 572 2628 855 2818 
Q 1138 3009 1463 3009 
Q 1672 3009 1834 2928 
Q 1997 2847 2181 2644 
L 2181 3525 
Q 2181 3859 2153 3928 
Q 2116 4019 2041 4062 
Q 1966 4106 1759 4106 
L 1759 4238 
L 3056 4238 
z
M 2181 2256 
Q 1950 2700 1616 2700 
Q 1500 2700 1425 2638 
Q 1309 2541 1236 2297 
Q 1163 2053 1163 1550 
Q 1163 997 1244 731 
Q 1325 466 1466 347 
Q 1538 288 1663 288 
Q 1938 288 2181 719 
L 2181 2256 
z
" transform="scale(0.015625)"/>
      <path id="TimesNewRomanPS-BoldMT-72" d="M 1428 2922 
L 1428 2259 
Q 1719 2713 1937 2861 
Q 2156 3009 2359 3009 
Q 2534 3009 2639 2901 
Q 2744 2794 2744 2597 
Q 2744 2388 2642 2272 
Q 2541 2156 2397 2156 
Q 2231 2156 2109 2262 
Q 1988 2369 1966 2381 
Q 1934 2400 1894 2400 
Q 1803 2400 1722 2331 
Q 1594 2225 1528 2028 
Q 1428 1725 1428 1359 
L 1428 688 
L 1431 513 
Q 1431 334 1453 284 
Q 1491 200 1564 161 
Q 1638 122 1813 113 
L 1813 0 
L 234 0 
L 234 113 
Q 425 128 492 217 
Q 559 306 559 688 
L 559 2303 
Q 559 2553 534 2622 
Q 503 2709 443 2750 
Q 384 2791 234 2806 
L 234 2922 
L 1428 2922 
z
" transform="scale(0.015625)"/>
      <path id="TimesNewRomanPS-BoldMT-62" d="M 1347 4238 
L 1347 2628 
Q 1716 3009 2153 3009 
Q 2453 3009 2718 2832 
Q 2984 2656 3134 2331 
Q 3284 2006 3284 1581 
Q 3284 1103 3093 712 
Q 2903 322 2584 117 
Q 2266 -88 1856 -88 
Q 1619 -88 1434 -12 
Q 1250 63 1072 231 
L 588 -84 
L 481 -84 
L 481 3631 
Q 481 3884 459 3944 
Q 428 4031 361 4073 
Q 294 4116 134 4122 
L 134 4238 
L 1347 4238 
z
M 1347 2350 
L 1347 1050 
Q 1347 653 1366 544 
Q 1397 359 1515 245 
Q 1634 131 1819 131 
Q 1978 131 2092 222 
Q 2206 313 2282 581 
Q 2359 850 2359 1550 
Q 2359 2222 2191 2472 
Q 2069 2653 1863 2653 
Q 1594 2653 1347 2350 
z
" transform="scale(0.015625)"/>
      <path id="TimesNewRomanPS-BoldMT-6f" d="M 1594 3009 
Q 1975 3009 2303 2812 
Q 2631 2616 2801 2253 
Q 2972 1891 2972 1459 
Q 2972 838 2656 419 
Q 2275 -88 1603 -88 
Q 944 -88 587 375 
Q 231 838 231 1447 
Q 231 2075 595 2542 
Q 959 3009 1594 3009 
z
M 1606 2788 
Q 1447 2788 1333 2667 
Q 1219 2547 1183 2192 
Q 1147 1838 1147 1206 
Q 1147 872 1191 581 
Q 1225 359 1337 243 
Q 1450 128 1594 128 
Q 1734 128 1828 206 
Q 1950 313 1991 503 
Q 2053 800 2053 1703 
Q 2053 2234 1993 2432 
Q 1934 2631 1819 2722 
Q 1738 2788 1606 2788 
z
" transform="scale(0.015625)"/>
     </defs>
     <use xlink:href="#TimesNewRomanPS-BoldMT-4e"/>
     <use xlink:href="#TimesNewRomanPS-BoldMT-61" transform="translate(72.216797 0)"/>
     <use xlink:href="#TimesNewRomanPS-BoldMT-69" transform="translate(122.216797 0)"/>
     <use xlink:href="#TimesNewRomanPS-BoldMT-76" transform="translate(150 0)"/>
     <use xlink:href="#TimesNewRomanPS-BoldMT-65" transform="translate(200 0)"/>
     <use xlink:href="#TimesNewRomanPS-BoldMT-20" transform="translate(244.384766 0)"/>
     <use xlink:href="#TimesNewRomanPS-BoldMT-6c" transform="translate(269.384766 0)"/>
     <use xlink:href="#TimesNewRomanPS-BoldMT-65" transform="translate(297.167969 0)"/>
     <use xlink:href="#TimesNewRomanPS-BoldMT-61" transform="translate(341.552734 0)"/>
     <use xlink:href="#TimesNewRomanPS-BoldMT-64" transform="translate(391.552734 0)"/>
     <use xlink:href="#TimesNewRomanPS-BoldMT-65" transform="translate(447.167969 0)"/>
     <use xlink:href="#TimesNewRomanPS-BoldMT-72" transform="translate(491.552734 0)"/>
     <use xlink:href="#TimesNewRomanPS-BoldMT-62" transform="translate(535.9375 0)"/>
     <use xlink:href="#TimesNewRomanPS-BoldMT-6f" transform="translate(591.552734 0)"/>
     <use xlink:href="#TimesNewRomanPS-BoldMT-61" transform="translate(641.552734 0)"/>
     <use xlink:href="#TimesNewRomanPS-BoldMT-72" transform="translate(691.552734 0)"/>
     <use xlink:href="#TimesNewRomanPS-BoldMT-64" transform="translate(735.9375 0)"/>
    </g>
   </g>
   <g id="text_2">
    <!-- MaxionBench decision audit -->
    <g style="fill: #1f2933" transform="translate(229.293989 15.545206) scale(0.1 -0.1)">
     <defs>
      <path id="TimesNewRomanPS-BoldMT-4d" d="M 3050 1444 
L 4200 4238 
L 5925 4238 
L 5925 4122 
L 5788 4122 
Q 5600 4122 5488 4056 
Q 5409 4013 5363 3909 
Q 5328 3834 5328 3519 
L 5328 725 
Q 5328 400 5362 319 
Q 5397 238 5503 177 
Q 5609 116 5788 116 
L 5925 116 
L 5925 0 
L 3713 0 
L 3713 116 
L 3850 116 
Q 4038 116 4150 181 
Q 4228 225 4275 331 
Q 4309 406 4309 725 
L 4309 3866 
L 2684 0 
L 2609 0 
L 959 3838 
L 959 853 
Q 959 541 975 469 
Q 1016 313 1152 214 
Q 1288 116 1578 116 
L 1578 0 
L 128 0 
L 128 116 
L 172 116 
Q 313 113 434 161 
Q 556 209 618 290 
Q 681 372 716 519 
Q 722 553 722 838 
L 722 3519 
Q 722 3841 687 3920 
Q 653 4000 547 4061 
Q 441 4122 263 4122 
L 128 4122 
L 128 4238 
L 1859 4238 
L 3050 1444 
z
" transform="scale(0.015625)"/>
      <path id="TimesNewRomanPS-BoldMT-78" d="M 1944 1791 
L 2450 828 
Q 2713 325 2866 191 
Q 2950 119 3097 113 
L 3097 0 
L 1469 0 
L 1469 113 
Q 1659 128 1704 162 
Q 1750 197 1750 256 
Q 1750 344 1650 531 
L 1397 1006 
L 1181 691 
Q 1034 475 1016 434 
Q 991 375 991 328 
Q 991 256 1020 207 
Q 1050 159 1101 136 
Q 1153 113 1291 113 
L 1291 0 
L 147 0 
L 147 113 
Q 359 113 536 230 
Q 713 347 1050 844 
L 1291 1200 
L 788 2131 
Q 541 2588 419 2691 
Q 297 2794 147 2806 
L 147 2922 
L 1766 2922 
L 1766 2806 
L 1681 2803 
L 1519 2747 
Q 1494 2725 1494 2675 
Q 1494 2628 1509 2578 
Q 1519 2556 1597 2409 
L 1825 1984 
L 1944 2153 
Q 2194 2497 2194 2634 
Q 2194 2700 2139 2745 
Q 2084 2791 1944 2806 
L 1944 2922 
L 2978 2922 
L 2978 2806 
Q 2788 2800 2622 2689 
Q 2456 2578 2250 2259 
L 1944 1791 
z
" transform="scale(0.015625)"/>
      <path id="TimesNewRomanPS-BoldMT-6e" d="M 1409 2922 
L 1409 2544 
Q 1634 2788 1840 2898 
Q 2047 3009 2284 3009 
Q 2569 3009 2756 2851 
Q 2944 2694 3006 2459 
Q 3056 2281 3056 1775 
L 3056 638 
Q 3056 300 3117 217 
Q 3178 134 3372 113 
L 3372 0 
L 1894 0 
L 1894 113 
Q 2059 134 2131 250 
Q 2181 328 2181 638 
L 2181 1938 
Q 2181 2297 2153 2390 
Q 2125 2484 2058 2536 
Q 1991 2588 1909 2588 
Q 1641 2588 1409 2203 
L 1409 638 
Q 1409 309 1470 221 
Q 1531 134 1697 113 
L 1697 0 
L 219 0 
L 219 113 
Q 403 131 481 231 
Q 534 300 534 638 
L 534 2288 
Q 534 2619 473 2700 
Q 413 2781 219 2806 
L 219 2922 
L 1409 2922 
z
" transform="scale(0.015625)"/>
      <path id="TimesNewRomanPS-BoldMT-42" d="M 2847 2247 
Q 3450 2106 3694 1906 
Q 4044 1622 4044 1169 
Q 4044 691 3659 378 
Q 3188 0 2288 0 
L 134 0 
L 134 116 
Q 428 116 533 170 
Q 638 225 680 312 
Q 722 400 722 744 
L 722 3494 
Q 722 3838 680 3927 
Q 638 4016 531 4069 
Q 425 4122 134 4122 
L 134 4238 
L 2166 4238 
Q 2894 4238 3197 4108 
Q 3500 3978 3675 3720 
Q 3850 3463 3850 3172 
Q 3850 2866 3628 2627 
Q 3406 2388 2847 2247 
z
M 1709 2331 
Q 2153 2331 2364 2431 
Q 2575 2531 2687 2712 
Q 2800 2894 2800 3175 
Q 2800 3456 2689 3636 
Q 2578 3816 2372 3909 
Q 2166 4003 1709 4000 
L 1709 2331 
z
M 1709 2088 
L 1709 728 
L 1706 572 
Q 1706 403 1792 317 
Q 1878 231 2047 231 
Q 2297 231 2508 342 
Q 2719 453 2831 664 
Q 2944 875 2944 1134 
Q 2944 1431 2806 1667 
Q 2669 1903 2428 1997 
Q 2188 2091 1709 2088 
z
" transform="scale(0.015625)"/>
      <path id="TimesNewRomanPS-BoldMT-63" d="M 2600 753 
L 2697 678 
Q 2491 291 2183 101 
Q 1875 -88 1528 -88 
Q 944 -88 594 353 
Q 244 794 244 1413 
Q 244 2009 563 2463 
Q 947 3009 1622 3009 
Q 2075 3009 2342 2781 
Q 2609 2553 2609 2272 
Q 2609 2094 2501 1987 
Q 2394 1881 2219 1881 
Q 2034 1881 1914 2003 
Q 1794 2125 1766 2438 
Q 1747 2634 1675 2713 
Q 1603 2791 1506 2791 
Q 1356 2791 1250 2631 
Q 1088 2391 1088 1894 
Q 1088 1481 1219 1104 
Q 1350 728 1578 544 
Q 1750 409 1984 409 
Q 2138 409 2275 481 
Q 2413 553 2600 753 
z
" transform="scale(0.015625)"/>
      <path id="TimesNewRomanPS-BoldMT-68" d="M 1409 4238 
L 1409 2547 
Q 1650 2800 1850 2904 
Q 2050 3009 2266 3009 
Q 2541 3009 2736 2853 
Q 2931 2697 2995 2486 
Q 3059 2275 3059 1775 
L 3059 634 
Q 3059 300 3121 217 
Q 3184 134 3375 113 
L 3375 0 
L 1894 0 
L 1894 113 
Q 2050 134 2128 238 
Q 2184 319 2184 634 
L 2184 1938 
Q 2184 2300 2156 2392 
Q 2128 2484 2061 2536 
Q 1994 2588 1909 2588 
Q 1784 2588 1665 2502 
Q 1547 2416 1409 2200 
L 1409 634 
Q 1409 322 1456 244 
Q 1516 138 1700 113 
L 1700 0 
L 219 0 
L 219 113 
Q 403 131 481 231 
Q 534 300 534 634 
L 534 3603 
Q 534 3934 473 4015 
Q 413 4097 219 4122 
L 219 4238 
L 1409 4238 
z
" transform="scale(0.015625)"/>
      <path id="TimesNewRomanPS-BoldMT-73" d="M 2063 3003 
L 2109 2006 
L 2003 2006 
Q 1813 2450 1608 2612 
Q 1403 2775 1200 2775 
Q 1072 2775 981 2689 
Q 891 2603 891 2491 
Q 891 2406 953 2328 
Q 1053 2200 1512 1889 
Q 1972 1578 2117 1361 
Q 2263 1144 2263 875 
Q 2263 631 2141 397 
Q 2019 163 1797 37 
Q 1575 -88 1306 -88 
Q 1097 -88 747 44 
Q 653 78 619 78 
Q 516 78 447 -78 
L 344 -78 
L 294 972 
L 400 972 
Q 541 559 786 353 
Q 1031 147 1250 147 
Q 1400 147 1495 239 
Q 1591 331 1591 463 
Q 1591 613 1497 722 
Q 1403 831 1078 1053 
Q 600 1384 459 1559 
Q 253 1816 253 2125 
Q 253 2463 486 2736 
Q 719 3009 1159 3009 
Q 1397 3009 1619 2894 
Q 1703 2847 1756 2847 
Q 1813 2847 1847 2870 
Q 1881 2894 1956 3003 
L 2063 3003 
z
" transform="scale(0.015625)"/>
      <path id="TimesNewRomanPS-BoldMT-75" d="M 3038 2922 
L 3038 634 
Q 3038 300 3100 217 
Q 3163 134 3353 113 
L 3353 0 
L 2163 0 
L 2163 391 
Q 1953 141 1743 26 
Q 1534 -88 1275 -88 
Q 1028 -88 836 64 
Q 644 216 578 419 
Q 513 622 513 1128 
L 513 2288 
Q 513 2619 452 2700 
Q 391 2781 197 2806 
L 197 2922 
L 1388 2922 
L 1388 925 
Q 1388 613 1417 522 
Q 1447 431 1511 384 
Q 1575 338 1659 338 
Q 1772 338 1863 397 
Q 1988 478 2163 725 
L 2163 2288 
Q 2163 2619 2102 2700 
Q 2041 2781 1847 2806 
L 1847 2922 
L 3038 2922 
z
" transform="scale(0.015625)"/>
      <path id="TimesNewRomanPS-BoldMT-74" d="M 1375 3991 
L 1375 2922 
L 2069 2922 
L 2069 2613 
L 1375 2613 
L 1375 809 
Q 1375 556 1398 482 
Q 1422 409 1481 364 
Q 1541 319 1591 319 
Q 1794 319 1975 628 
L 2069 559 
Q 1816 -41 1247 -41 
Q 969 -41 776 114 
Q 584 269 531 459 
Q 500 566 500 1034 
L 500 2613 
L 119 2613 
L 119 2722 
Q 513 3000 789 3306 
Q 1066 3613 1272 3991 
L 1375 3991 
z
" transform="scale(0.015625)"/>
     </defs>
     <use xlink:href="#TimesNewRomanPS-BoldMT-4d"/>
     <use xlink:href="#TimesNewRomanPS-BoldMT-61" transform="translate(94.384766 0)"/>
     <use xlink:href="#TimesNewRomanPS-BoldMT-78" transform="translate(144.384766 0)"/>
     <use xlink:href="#TimesNewRomanPS-BoldMT-69" transform="translate(194.384766 0)"/>
     <use xlink:href="#TimesNewRomanPS-BoldMT-6f" transform="translate(222.167969 0)"/>
     <use xlink:href="#TimesNewRomanPS-BoldMT-6e" transform="translate(272.167969 0)"/>
     <use xlink:href="#TimesNewRomanPS-BoldMT-42" transform="translate(327.783203 0)"/>
     <use xlink:href="#TimesNewRomanPS-BoldMT-65" transform="translate(394.482422 0)"/>
     <use xlink:href="#TimesNewRomanPS-BoldMT-6e" transform="translate(438.867188 0)"/>
     <use xlink:href="#TimesNewRomanPS-BoldMT-63" transform="translate(494.482422 0)"/>
     <use xlink:href="#TimesNewRomanPS-BoldMT-68" transform="translate(538.867188 0)"/>
     <use xlink:href="#TimesNewRomanPS-BoldMT-20" transform="translate(594.482422 0)"/>
     <use xlink:href="#TimesNewRomanPS-BoldMT-64" transform="translate(619.482422 0)"/>
     <use xlink:href="#TimesNewRomanPS-BoldMT-65" transform="translate(675.097656 0)"/>
     <use xlink:href="#TimesNewRomanPS-BoldMT-63" transform="translate(719.482422 0)"/>
     <use xlink:href="#TimesNewRomanPS-BoldMT-69" transform="translate(763.867188 0)"/>
     <use xlink:href="#TimesNewRomanPS-BoldMT-73" transform="translate(791.650391 0)"/>
     <use xlink:href="#TimesNewRomanPS-BoldMT-69" transform="translate(830.566406 0)"/>
     <use xlink:href="#TimesNewRomanPS-BoldMT-6f" transform="translate(858.349609 0)"/>
     <use xlink:href="#TimesNewRomanPS-BoldMT-6e" transform="translate(908.349609 0)"/>
     <use xlink:href="#TimesNewRomanPS-BoldMT-20" transform="translate(963.964844 0)"/>
     <use xlink:href="#TimesNewRomanPS-BoldMT-61" transform="translate(988.964844 0)"/>
     <use xlink:href="#TimesNewRomanPS-BoldMT-75" transform="translate(1038.964844 0)"/>
     <use xlink:href="#TimesNewRomanPS-BoldMT-64" transform="translate(1094.580078 0)"/>
     <use xlink:href="#TimesNewRomanPS-BoldMT-69" transform="translate(1150.195312 0)"/>
     <use xlink:href="#TimesNewRomanPS-BoldMT-74" transform="translate(1177.978516 0)"/>
    </g>
   </g>
   <g id="text_3">
    <!-- Static relevance only -->
    <g style="fill: #1f2933" transform="translate(55.069905 45.128055) scale(0.08 -0.08)">
     <defs>
      <path id="TimesNewRomanPSMT-53" d="M 2934 4334 
L 2934 2869 
L 2819 2869 
Q 2763 3291 2617 3541 
Q 2472 3791 2203 3937 
Q 1934 4084 1647 4084 
Q 1322 4084 1109 3886 
Q 897 3688 897 3434 
Q 897 3241 1031 3081 
Q 1225 2847 1953 2456 
Q 2547 2138 2764 1967 
Q 2981 1797 3098 1565 
Q 3216 1334 3216 1081 
Q 3216 600 2842 251 
Q 2469 -97 1881 -97 
Q 1697 -97 1534 -69 
Q 1438 -53 1133 45 
Q 828 144 747 144 
Q 669 144 623 97 
Q 578 50 556 -97 
L 441 -97 
L 441 1356 
L 556 1356 
Q 638 900 775 673 
Q 913 447 1195 297 
Q 1478 147 1816 147 
Q 2206 147 2432 353 
Q 2659 559 2659 841 
Q 2659 997 2573 1156 
Q 2488 1316 2306 1453 
Q 2184 1547 1640 1851 
Q 1097 2156 867 2337 
Q 638 2519 519 2737 
Q 400 2956 400 3219 
Q 400 3675 750 4004 
Q 1100 4334 1641 4334 
Q 1978 4334 2356 4169 
Q 2531 4091 2603 4091 
Q 2684 4091 2736 4139 
Q 2788 4188 2819 4334 
L 2934 4334 
z
" transform="scale(0.015625)"/>
      <path id="TimesNewRomanPSMT-74" d="M 1031 3803 
L 1031 2863 
L 1700 2863 
L 1700 2644 
L 1031 2644 
L 1031 788 
Q 1031 509 1111 412 
Q 1191 316 1316 316 
Q 1419 316 1516 380 
Q 1613 444 1666 569 
L 1788 569 
Q 1678 263 1478 108 
Q 1278 -47 1066 -47 
Q 922 -47 784 33 
Q 647 113 581 261 
Q 516 409 516 719 
L 516 2644 
L 63 2644 
L 63 2747 
Q 234 2816 414 2980 
Q 594 3144 734 3369 
Q 806 3488 934 3803 
L 1031 3803 
z
" transform="scale(0.015625)"/>
      <path id="TimesNewRomanPSMT-61" d="M 1822 413 
Q 1381 72 1269 19 
Q 1100 -59 909 -59 
Q 613 -59 420 144 
Q 228 347 228 678 
Q 228 888 322 1041 
Q 450 1253 767 1440 
Q 1084 1628 1822 1897 
L 1822 2009 
Q 1822 2438 1686 2597 
Q 1550 2756 1291 2756 
Q 1094 2756 978 2650 
Q 859 2544 859 2406 
L 866 2225 
Q 866 2081 792 2003 
Q 719 1925 600 1925 
Q 484 1925 411 2006 
Q 338 2088 338 2228 
Q 338 2497 613 2722 
Q 888 2947 1384 2947 
Q 1766 2947 2009 2819 
Q 2194 2722 2281 2516 
Q 2338 2381 2338 1966 
L 2338 994 
Q 2338 584 2353 492 
Q 2369 400 2405 369 
Q 2441 338 2488 338 
Q 2538 338 2575 359 
Q 2641 400 2828 588 
L 2828 413 
Q 2478 -56 2159 -56 
Q 2006 -56 1915 50 
Q 1825 156 1822 413 
z
M 1822 616 
L 1822 1706 
Q 1350 1519 1213 1441 
Q 966 1303 859 1153 
Q 753 1003 753 825 
Q 753 600 887 451 
Q 1022 303 1197 303 
Q 1434 303 1822 616 
z
" transform="scale(0.015625)"/>
      <path id="TimesNewRomanPSMT-69" d="M 928 4444 
Q 1059 4444 1151 4351 
Q 1244 4259 1244 4128 
Q 1244 3997 1151 3903 
Q 1059 3809 928 3809 
Q 797 3809 703 3903 
Q 609 3997 609 4128 
Q 609 4259 701 4351 
Q 794 4444 928 4444 
z
M 1188 2947 
L 1188 647 
Q 1188 378 1227 289 
Q 1266 200 1342 156 
Q 1419 113 1622 113 
L 1622 0 
L 231 0 
L 231 113 
Q 441 113 512 153 
Q 584 194 626 287 
Q 669 381 669 647 
L 669 1750 
Q 669 2216 641 2353 
Q 619 2453 572 2492 
Q 525 2531 444 2531 
Q 356 2531 231 2484 
L 188 2597 
L 1050 2947 
L 1188 2947 
z
" transform="scale(0.015625)"/>
      <path id="TimesNewRomanPSMT-63" d="M 2631 1088 
Q 2516 522 2178 217 
Q 1841 -88 1431 -88 
Q 944 -88 581 321 
Q 219 731 219 1428 
Q 219 2103 620 2525 
Q 1022 2947 1584 2947 
Q 2006 2947 2278 2723 
Q 2550 2500 2550 2259 
Q 2550 2141 2473 2067 
Q 2397 1994 2259 1994 
Q 2075 1994 1981 2113 
Q 1928 2178 1911 2362 
Q 1894 2547 1784 2644 
Q 1675 2738 1481 2738 
Q 1169 2738 978 2506 
Q 725 2200 725 1697 
Q 725 1184 976 792 
Q 1228 400 1656 400 
Q 1963 400 2206 609 
Q 2378 753 2541 1131 
L 2631 1088 
z
" transform="scale(0.015625)"/>
      <path id="TimesNewRomanPSMT-20" transform="scale(0.015625)"/>
      <path id="TimesNewRomanPSMT-72" d="M 1038 2947 
L 1038 2303 
Q 1397 2947 1775 2947 
Q 1947 2947 2059 2842 
Q 2172 2738 2172 2600 
Q 2172 2478 2090 2393 
Q 2009 2309 1897 2309 
Q 1788 2309 1652 2417 
Q 1516 2525 1450 2525 
Q 1394 2525 1328 2463 
Q 1188 2334 1038 2041 
L 1038 669 
Q 1038 431 1097 309 
Q 1138 225 1241 169 
Q 1344 113 1538 113 
L 1538 0 
L 72 0 
L 72 113 
Q 291 113 397 181 
Q 475 231 506 341 
Q 522 394 522 644 
L 522 1753 
Q 522 2253 501 2348 
Q 481 2444 426 2487 
Q 372 2531 291 2531 
Q 194 2531 72 2484 
L 41 2597 
L 906 2947 
L 1038 2947 
z
" transform="scale(0.015625)"/>
      <path id="TimesNewRomanPSMT-65" d="M 681 1784 
Q 678 1147 991 784 
Q 1303 422 1725 422 
Q 2006 422 2214 576 
Q 2422 731 2563 1106 
L 2659 1044 
Q 2594 616 2278 264 
Q 1963 -88 1488 -88 
Q 972 -88 605 314 
Q 238 716 238 1394 
Q 238 2128 614 2539 
Q 991 2950 1559 2950 
Q 2041 2950 2350 2633 
Q 2659 2316 2659 1784 
L 681 1784 
z
M 681 1966 
L 2006 1966 
Q 1991 2241 1941 2353 
Q 1863 2528 1708 2628 
Q 1553 2728 1384 2728 
Q 1125 2728 920 2526 
Q 716 2325 681 1966 
z
" transform="scale(0.015625)"/>
      <path id="TimesNewRomanPSMT-6c" d="M 1184 4444 
L 1184 647 
Q 1184 378 1223 290 
Q 1263 203 1344 158 
Q 1425 113 1647 113 
L 1647 0 
L 244 0 
L 244 113 
Q 441 113 512 153 
Q 584 194 625 287 
Q 666 381 666 647 
L 666 3247 
Q 666 3731 644 3842 
Q 622 3953 573 3993 
Q 525 4034 450 4034 
Q 369 4034 244 3984 
L 191 4094 
L 1044 4444 
L 1184 4444 
z
" transform="scale(0.015625)"/>
      <path id="TimesNewRomanPSMT-76" d="M 53 2863 
L 1400 2863 
L 1400 2747 
L 1313 2747 
Q 1191 2747 1127 2687 
Q 1063 2628 1063 2528 
Q 1063 2419 1128 2269 
L 1794 688 
L 2463 2328 
Q 2534 2503 2534 2594 
Q 2534 2638 2509 2666 
Q 2475 2713 2422 2730 
Q 2369 2747 2206 2747 
L 2206 2863 
L 3141 2863 
L 3141 2747 
Q 2978 2734 2916 2681 
Q 2806 2588 2719 2369 
L 1703 -88 
L 1575 -88 
L 553 2328 
Q 484 2497 421 2570 
Q 359 2644 263 2694 
Q 209 2722 53 2747 
L 53 2863 
z
" transform="scale(0.015625)"/>
      <path id="TimesNewRomanPSMT-6e" d="M 1034 2341 
Q 1538 2947 1994 2947 
Q 2228 2947 2397 2830 
Q 2566 2713 2666 2444 
Q 2734 2256 2734 1869 
L 2734 647 
Q 2734 375 2778 278 
Q 2813 200 2889 156 
Q 2966 113 3172 113 
L 3172 0 
L 1756 0 
L 1756 113 
L 1816 113 
Q 2016 113 2095 173 
Q 2175 234 2206 353 
Q 2219 400 2219 647 
L 2219 1819 
Q 2219 2209 2117 2386 
Q 2016 2563 1775 2563 
Q 1403 2563 1034 2156 
L 1034 647 
Q 1034 356 1069 288 
Q 1113 197 1189 155 
Q 1266 113 1500 113 
L 1500 0 
L 84 0 
L 84 113 
L 147 113 
Q 366 113 442 223 
Q 519 334 519 647 
L 519 1709 
Q 519 2225 495 2337 
Q 472 2450 423 2490 
Q 375 2531 294 2531 
Q 206 2531 84 2484 
L 38 2597 
L 900 2947 
L 1034 2947 
L 1034 2341 
z
" transform="scale(0.015625)"/>
      <path id="TimesNewRomanPSMT-6f" d="M 1600 2947 
Q 2250 2947 2644 2453 
Q 2978 2031 2978 1484 
Q 2978 1100 2793 706 
Q 2609 313 2286 112 
Q 1963 -88 1566 -88 
Q 919 -88 538 428 
Q 216 863 216 1403 
Q 216 1797 411 2186 
Q 606 2575 925 2761 
Q 1244 2947 1600 2947 
z
M 1503 2744 
Q 1338 2744 1170 2645 
Q 1003 2547 900 2300 
Q 797 2053 797 1666 
Q 797 1041 1045 587 
Q 1294 134 1700 134 
Q 2003 134 2200 384 
Q 2397 634 2397 1244 
Q 2397 2006 2069 2444 
Q 1847 2744 1503 2744 
z
" transform="scale(0.015625)"/>
      <path id="TimesNewRomanPSMT-79" d="M 38 2863 
L 1372 2863 
L 1372 2747 
L 1306 2747 
Q 1166 2747 1095 2686 
Q 1025 2625 1025 2534 
Q 1025 2413 1128 2197 
L 1825 753 
L 2466 2334 
Q 2519 2463 2519 2588 
Q 2519 2644 2497 2672 
Q 2472 2706 2419 2726 
Q 2366 2747 2231 2747 
L 2231 2863 
L 3163 2863 
L 3163 2747 
Q 3047 2734 2984 2696 
Q 2922 2659 2847 2556 
Q 2819 2513 2741 2316 
L 1575 -541 
Q 1406 -956 1132 -1168 
Q 859 -1381 606 -1381 
Q 422 -1381 303 -1275 
Q 184 -1169 184 -1031 
Q 184 -900 270 -820 
Q 356 -741 506 -741 
Q 609 -741 788 -809 
Q 913 -856 944 -856 
Q 1038 -856 1148 -759 
Q 1259 -663 1372 -384 
L 1575 113 
L 547 2272 
Q 500 2369 397 2513 
Q 319 2622 269 2659 
Q 197 2709 38 2747 
L 38 2863 
z
" transform="scale(0.015625)"/>
     </defs>
     <use xlink:href="#TimesNewRomanPSMT-53"/>
     <use xlink:href="#TimesNewRomanPSMT-74" transform="translate(55.615234 0)"/>
     <use xlink:href="#TimesNewRomanPSMT-61" transform="translate(83.398438 0)"/>
     <use xlink:href="#TimesNewRomanPSMT-74" transform="translate(127.783203 0)"/>
     <use xlink:href="#TimesNewRomanPSMT-69" transform="translate(155.566406 0)"/>
     <use xlink:href="#TimesNewRomanPSMT-63" transform="translate(183.349609 0)"/>
     <use xlink:href="#TimesNewRomanPSMT-20" transform="translate(227.734375 0)"/>
     <use xlink:href="#TimesNewRomanPSMT-72" transform="translate(252.734375 0)"/>
     <use xlink:href="#TimesNewRomanPSMT-65" transform="translate(286.035156 0)"/>
     <use xlink:href="#TimesNewRomanPSMT-6c" transform="translate(330.419922 0)"/>
     <use xlink:href="#TimesNewRomanPSMT-65" transform="translate(358.203125 0)"/>
     <use xlink:href="#TimesNewRomanPSMT-76" transform="translate(402.587891 0)"/>
     <use xlink:href="#TimesNewRomanPSMT-61" transform="translate(452.587891 0)"/>
     <use xlink:href="#TimesNewRomanPSMT-6e" transform="translate(496.972656 0)"/>
     <use xlink:href="#TimesNewRomanPSMT-63" transform="translate(546.972656 0)"/>
     <use xlink:href="#TimesNewRomanPSMT-65" transform="translate(591.357422 0)"/>
     <use xlink:href="#TimesNewRomanPSMT-20" transform="translate(635.742188 0)"/>
     <use xlink:href="#TimesNewRomanPSMT-6f" transform="translate(660.742188 0)"/>
     <use xlink:href="#TimesNewRomanPSMT-6e" transform="translate(710.742188 0)"/>
     <use xlink:href="#TimesNewRomanPSMT-6c" transform="translate(760.742188 0)"/>
     <use xlink:href="#TimesNewRomanPSMT-79" transform="translate(788.525391 0)"/>
    </g>
   </g>
   <g id="text_4">
    <!-- Mean / median latency -->
    <g style="fill: #1f2933" transform="translate(52.06928 88.842495) scale(0.08 -0.08)">
     <defs>
      <path id="TimesNewRomanPSMT-4d" d="M 2619 0 
L 981 3566 
L 981 734 
Q 981 344 1066 247 
Q 1181 116 1431 116 
L 1581 116 
L 1581 0 
L 106 0 
L 106 116 
L 256 116 
Q 525 116 638 278 
Q 706 378 706 734 
L 706 3503 
Q 706 3784 644 3909 
Q 600 4000 483 4061 
Q 366 4122 106 4122 
L 106 4238 
L 1306 4238 
L 2844 922 
L 4356 4238 
L 5556 4238 
L 5556 4122 
L 5409 4122 
Q 5138 4122 5025 3959 
Q 4956 3859 4956 3503 
L 4956 734 
Q 4956 344 5044 247 
Q 5159 116 5409 116 
L 5556 116 
L 5556 0 
L 3756 0 
L 3756 116 
L 3906 116 
Q 4178 116 4288 278 
Q 4356 378 4356 734 
L 4356 3566 
L 2722 0 
L 2619 0 
z
" transform="scale(0.015625)"/>
      <path id="TimesNewRomanPSMT-2f" d="M 1794 4444 
L 259 -88 
L 9 -88 
L 1544 4444 
L 1794 4444 
z
" transform="scale(0.015625)"/>
      <path id="TimesNewRomanPSMT-6d" d="M 1050 2338 
Q 1363 2650 1419 2697 
Q 1559 2816 1721 2881 
Q 1884 2947 2044 2947 
Q 2313 2947 2506 2790 
Q 2700 2634 2766 2338 
Q 3088 2713 3309 2830 
Q 3531 2947 3766 2947 
Q 3994 2947 4170 2830 
Q 4347 2713 4450 2447 
Q 4519 2266 4519 1878 
L 4519 647 
Q 4519 378 4559 278 
Q 4591 209 4675 161 
Q 4759 113 4950 113 
L 4950 0 
L 3538 0 
L 3538 113 
L 3597 113 
Q 3781 113 3884 184 
Q 3956 234 3988 344 
Q 4000 397 4000 647 
L 4000 1878 
Q 4000 2228 3916 2372 
Q 3794 2572 3525 2572 
Q 3359 2572 3192 2489 
Q 3025 2406 2788 2181 
L 2781 2147 
L 2788 2013 
L 2788 647 
Q 2788 353 2820 281 
Q 2853 209 2943 161 
Q 3034 113 3253 113 
L 3253 0 
L 1806 0 
L 1806 113 
Q 2044 113 2133 169 
Q 2222 225 2256 338 
Q 2272 391 2272 647 
L 2272 1878 
Q 2272 2228 2169 2381 
Q 2031 2581 1784 2581 
Q 1616 2581 1450 2491 
Q 1191 2353 1050 2181 
L 1050 647 
Q 1050 366 1089 281 
Q 1128 197 1204 155 
Q 1281 113 1516 113 
L 1516 0 
L 100 0 
L 100 113 
Q 297 113 375 155 
Q 453 197 493 289 
Q 534 381 534 647 
L 534 1741 
Q 534 2213 506 2350 
Q 484 2453 437 2492 
Q 391 2531 309 2531 
Q 222 2531 100 2484 
L 53 2597 
L 916 2947 
L 1050 2947 
L 1050 2338 
z
" transform="scale(0.015625)"/>
      <path id="TimesNewRomanPSMT-64" d="M 2222 322 
Q 2013 103 1813 7 
Q 1613 -88 1381 -88 
Q 913 -88 563 304 
Q 213 697 213 1313 
Q 213 1928 600 2439 
Q 988 2950 1597 2950 
Q 1975 2950 2222 2709 
L 2222 3238 
Q 2222 3728 2198 3840 
Q 2175 3953 2125 3993 
Q 2075 4034 2000 4034 
Q 1919 4034 1784 3984 
L 1744 4094 
L 2597 4444 
L 2738 4444 
L 2738 1134 
Q 2738 631 2761 520 
Q 2784 409 2836 365 
Q 2888 322 2956 322 
Q 3041 322 3181 375 
L 3216 266 
L 2366 -88 
L 2222 -88 
L 2222 322 
z
M 2222 541 
L 2222 2016 
Q 2203 2228 2109 2403 
Q 2016 2578 1861 2667 
Q 1706 2756 1559 2756 
Q 1284 2756 1069 2509 
Q 784 2184 784 1559 
Q 784 928 1059 592 
Q 1334 256 1672 256 
Q 1956 256 2222 541 
z
" transform="scale(0.015625)"/>
     </defs>
     <use xlink:href="#TimesNewRomanPSMT-4d"/>
     <use xlink:href="#TimesNewRomanPSMT-65" transform="translate(88.916016 0)"/>
     <use xlink:href="#TimesNewRomanPSMT-61" transform="translate(133.300781 0)"/>
     <use xlink:href="#TimesNewRomanPSMT-6e" transform="translate(177.685547 0)"/>
     <use xlink:href="#TimesNewRomanPSMT-20" transform="translate(227.685547 0)"/>
     <use xlink:href="#TimesNewRomanPSMT-2f" transform="translate(252.685547 0)"/>
     <use xlink:href="#TimesNewRomanPSMT-20" transform="translate(280.46875 0)"/>
     <use xlink:href="#TimesNewRomanPSMT-6d" transform="translate(305.46875 0)"/>
     <use xlink:href="#TimesNewRomanPSMT-65" transform="translate(383.251953 0)"/>
     <use xlink:href="#TimesNewRomanPSMT-64" transform="translate(427.636719 0)"/>
     <use xlink:href="#TimesNewRomanPSMT-69" transform="translate(477.636719 0)"/>
     <use xlink:href="#TimesNewRomanPSMT-61" transform="translate(505.419922 0)"/>
     <use xlink:href="#TimesNewRomanPSMT-6e" transform="translate(549.804688 0)"/>
     <use xlink:href="#TimesNewRomanPSMT-20" transform="translate(599.804688 0)"/>
     <use xlink:href="#TimesNewRomanPSMT-6c" transform="translate(624.804688 0)"/>
     <use xlink:href="#TimesNewRomanPSMT-61" transform="translate(652.587891 0)"/>
     <use xlink:href="#TimesNewRomanPSMT-74" transform="translate(696.972656 0)"/>
     <use xlink:href="#TimesNewRomanPSMT-65" transform="translate(724.755859 0)"/>
     <use xlink:href="#TimesNewRomanPSMT-6e" transform="translate(769.140625 0)"/>
     <use xlink:href="#TimesNewRomanPSMT-63" transform="translate(819.140625 0)"/>
     <use xlink:href="#TimesNewRomanPSMT-79" transform="translate(863.525391 0)"/>
    </g>
   </g>
   <g id="text_5">
    <!-- No write semantics -->
    <g style="fill: #1f2933" transform="translate(57.729905 124.04454) scale(0.08 -0.08)">
     <defs>
      <path id="TimesNewRomanPSMT-4e" d="M -84 4238 
L 1066 4238 
L 3656 1059 
L 3656 3503 
Q 3656 3894 3569 3991 
Q 3453 4122 3203 4122 
L 3056 4122 
L 3056 4238 
L 4531 4238 
L 4531 4122 
L 4381 4122 
Q 4113 4122 4000 3959 
Q 3931 3859 3931 3503 
L 3931 -69 
L 3819 -69 
L 1025 3344 
L 1025 734 
Q 1025 344 1109 247 
Q 1228 116 1475 116 
L 1625 116 
L 1625 0 
L 150 0 
L 150 116 
L 297 116 
Q 569 116 681 278 
Q 750 378 750 734 
L 750 3681 
Q 566 3897 470 3965 
Q 375 4034 191 4094 
Q 100 4122 -84 4122 
L -84 4238 
z
" transform="scale(0.015625)"/>
      <path id="TimesNewRomanPSMT-77" d="M 41 2863 
L 1241 2863 
L 1241 2747 
Q 1075 2734 1023 2687 
Q 972 2641 972 2553 
Q 972 2456 1025 2319 
L 1638 672 
L 2253 2013 
L 2091 2434 
Q 2016 2622 1894 2694 
Q 1825 2738 1638 2747 
L 1638 2863 
L 3000 2863 
L 3000 2747 
Q 2775 2738 2681 2666 
Q 2619 2616 2619 2506 
Q 2619 2444 2644 2378 
L 3294 734 
L 3897 2319 
Q 3959 2488 3959 2588 
Q 3959 2647 3898 2694 
Q 3838 2741 3659 2747 
L 3659 2863 
L 4563 2863 
L 4563 2747 
Q 4291 2706 4163 2378 
L 3206 -88 
L 3078 -88 
L 2363 1741 
L 1528 -88 
L 1413 -88 
L 494 2319 
Q 403 2547 315 2626 
Q 228 2706 41 2747 
L 41 2863 
z
" transform="scale(0.015625)"/>
      <path id="TimesNewRomanPSMT-73" d="M 2050 2947 
L 2050 1972 
L 1947 1972 
Q 1828 2431 1642 2597 
Q 1456 2763 1169 2763 
Q 950 2763 815 2647 
Q 681 2531 681 2391 
Q 681 2216 781 2091 
Q 878 1963 1175 1819 
L 1631 1597 
Q 2266 1288 2266 781 
Q 2266 391 1970 151 
Q 1675 -88 1309 -88 
Q 1047 -88 709 6 
Q 606 38 541 38 
Q 469 38 428 -44 
L 325 -44 
L 325 978 
L 428 978 
Q 516 541 762 319 
Q 1009 97 1316 97 
Q 1531 97 1667 223 
Q 1803 350 1803 528 
Q 1803 744 1651 891 
Q 1500 1038 1047 1263 
Q 594 1488 453 1669 
Q 313 1847 313 2119 
Q 313 2472 555 2709 
Q 797 2947 1181 2947 
Q 1350 2947 1591 2875 
Q 1750 2828 1803 2828 
Q 1853 2828 1881 2850 
Q 1909 2872 1947 2947 
L 2050 2947 
z
" transform="scale(0.015625)"/>
     </defs>
     <use xlink:href="#TimesNewRomanPSMT-4e"/>
     <use xlink:href="#TimesNewRomanPSMT-6f" transform="translate(72.216797 0)"/>
     <use xlink:href="#TimesNewRomanPSMT-20" transform="translate(122.216797 0)"/>
     <use xlink:href="#TimesNewRomanPSMT-77" transform="translate(147.216797 0)"/>
     <use xlink:href="#TimesNewRomanPSMT-72" transform="translate(219.433594 0)"/>
     <use xlink:href="#TimesNewRomanPSMT-69" transform="translate(252.734375 0)"/>
     <use xlink:href="#TimesNewRomanPSMT-74" transform="translate(280.517578 0)"/>
     <use xlink:href="#TimesNewRomanPSMT-65" transform="translate(308.300781 0)"/>
     <use xlink:href="#TimesNewRomanPSMT-20" transform="translate(352.685547 0)"/>
     <use xlink:href="#TimesNewRomanPSMT-73" transform="translate(377.685547 0)"/>
     <use xlink:href="#TimesNewRomanPSMT-65" transform="translate(416.601562 0)"/>
     <use xlink:href="#TimesNewRomanPSMT-6d" transform="translate(460.986328 0)"/>
     <use xlink:href="#TimesNewRomanPSMT-61" transform="translate(538.769531 0)"/>
     <use xlink:href="#TimesNewRomanPSMT-6e" transform="translate(583.154297 0)"/>
     <use xlink:href="#TimesNewRomanPSMT-74" transform="translate(633.154297 0)"/>
     <use xlink:href="#TimesNewRomanPSMT-69" transform="translate(660.9375 0)"/>
     <use xlink:href="#TimesNewRomanPSMT-63" transform="translate(688.720703 0)"/>
     <use xlink:href="#TimesNewRomanPSMT-73" transform="translate(733.105469 0)"/>
    </g>
    <!-- or context-cost proxy -->
    <g style="fill: #1f2933" transform="translate(54.398655 131.86629) scale(0.08 -0.08)">
     <defs>
      <path id="TimesNewRomanPSMT-78" d="M 84 2863 
L 1431 2863 
L 1431 2747 
Q 1303 2747 1251 2703 
Q 1200 2659 1200 2588 
Q 1200 2513 1309 2356 
Q 1344 2306 1413 2200 
L 1616 1875 
L 1850 2200 
Q 2075 2509 2075 2591 
Q 2075 2656 2022 2701 
Q 1969 2747 1850 2747 
L 1850 2863 
L 2819 2863 
L 2819 2747 
Q 2666 2738 2553 2663 
Q 2400 2556 2134 2200 
L 1744 1678 
L 2456 653 
Q 2719 275 2831 198 
Q 2944 122 3122 113 
L 3122 0 
L 1772 0 
L 1772 113 
Q 1913 113 1991 175 
Q 2050 219 2050 291 
Q 2050 363 1850 653 
L 1431 1266 
L 972 653 
Q 759 369 759 316 
Q 759 241 829 180 
Q 900 119 1041 113 
L 1041 0 
L 106 0 
L 106 113 
Q 219 128 303 191 
Q 422 281 703 653 
L 1303 1450 
L 759 2238 
Q 528 2575 401 2661 
Q 275 2747 84 2747 
L 84 2863 
z
" transform="scale(0.015625)"/>
      <path id="TimesNewRomanPSMT-2d" d="M 259 1672 
L 1875 1672 
L 1875 1200 
L 259 1200 
L 259 1672 
z
" transform="scale(0.015625)"/>
      <path id="TimesNewRomanPSMT-70" d="M -6 2578 
L 875 2934 
L 994 2934 
L 994 2266 
Q 1216 2644 1439 2795 
Q 1663 2947 1909 2947 
Q 2341 2947 2628 2609 
Q 2981 2197 2981 1534 
Q 2981 794 2556 309 
Q 2206 -88 1675 -88 
Q 1444 -88 1275 -22 
Q 1150 25 994 166 
L 994 -706 
Q 994 -1000 1030 -1079 
Q 1066 -1159 1155 -1206 
Q 1244 -1253 1478 -1253 
L 1478 -1369 
L -22 -1369 
L -22 -1253 
L 56 -1253 
Q 228 -1256 350 -1188 
Q 409 -1153 442 -1076 
Q 475 -1000 475 -688 
L 475 2019 
Q 475 2297 450 2372 
Q 425 2447 370 2484 
Q 316 2522 222 2522 
Q 147 2522 31 2478 
L -6 2578 
z
M 994 2081 
L 994 1013 
Q 994 666 1022 556 
Q 1066 375 1236 237 
Q 1406 100 1666 100 
Q 1978 100 2172 344 
Q 2425 663 2425 1241 
Q 2425 1897 2138 2250 
Q 1938 2494 1663 2494 
Q 1513 2494 1366 2419 
Q 1253 2363 994 2081 
z
" transform="scale(0.015625)"/>
     </defs>
     <use xlink:href="#TimesNewRomanPSMT-6f"/>
     <use xlink:href="#TimesNewRomanPSMT-72" transform="translate(50 0)"/>
     <use xlink:href="#TimesNewRomanPSMT-20" transform="translate(83.300781 0)"/>
     <use xlink:href="#TimesNewRomanPSMT-63" transform="translate(108.300781 0)"/>
     <use xlink:href="#TimesNewRomanPSMT-6f" transform="translate(152.685547 0)"/>
     <use xlink:href="#TimesNewRomanPSMT-6e" transform="translate(202.685547 0)"/>
     <use xlink:href="#TimesNewRomanPSMT-74" transform="translate(252.685547 0)"/>
     <use xlink:href="#TimesNewRomanPSMT-65" transform="translate(280.46875 0)"/>
     <use xlink:href="#TimesNewRomanPSMT-78" transform="translate(324.853516 0)"/>
     <use xlink:href="#TimesNewRomanPSMT-74" transform="translate(374.853516 0)"/>
     <use xlink:href="#TimesNewRomanPSMT-2d" transform="translate(402.636719 0)"/>
     <use xlink:href="#TimesNewRomanPSMT-63" transform="translate(435.9375 0)"/>
     <use xlink:href="#TimesNewRomanPSMT-6f" transform="translate(480.322266 0)"/>
     <use xlink:href="#TimesNewRomanPSMT-73" transform="translate(530.322266 0)"/>
     <use xlink:href="#TimesNewRomanPSMT-74" transform="translate(569.238281 0)"/>
     <use xlink:href="#TimesNewRomanPSMT-20" transform="translate(597.021484 0)"/>
     <use xlink:href="#TimesNewRomanPSMT-70" transform="translate(622.021484 0)"/>
     <use xlink:href="#TimesNewRomanPSMT-72" transform="translate(672.021484 0)"/>
     <use xlink:href="#TimesNewRomanPSMT-6f" transform="translate(705.322266 0)"/>
     <use xlink:href="#TimesNewRomanPSMT-78" transform="translate(755.322266 0)"/>
     <use xlink:href="#TimesNewRomanPSMT-79" transform="translate(805.322266 0)"/>
    </g>
   </g>
   <g id="text_6">
    <!-- One apparent winner -->
    <g style="fill: #1f2933" transform="translate(52.01428 184.265285) scale(0.08 -0.08)">
     <defs>
      <path id="TimesNewRomanPS-BoldMT-4f" d="M 2472 4297 
Q 3484 4334 4117 3706 
Q 4750 3078 4750 2134 
Q 4750 1328 4278 716 
Q 3653 -97 2513 -97 
Q 1369 -97 744 678 
Q 250 1291 250 2131 
Q 250 3075 892 3704 
Q 1534 4334 2472 4297 
z
M 2509 4097 
Q 1928 4097 1625 3503 
Q 1378 3016 1378 2103 
Q 1378 1019 1759 500 
Q 2025 138 2503 138 
Q 2825 138 3041 294 
Q 3316 494 3469 933 
Q 3622 1372 3622 2078 
Q 3622 2919 3465 3336 
Q 3309 3753 3067 3925 
Q 2825 4097 2509 4097 
z
" transform="scale(0.015625)"/>
      <path id="TimesNewRomanPS-BoldMT-70" d="M 1347 297 
L 1347 -791 
Q 1347 -1016 1383 -1097 
Q 1419 -1178 1494 -1215 
Q 1569 -1253 1788 -1253 
L 1788 -1369 
L 122 -1369 
L 122 -1253 
Q 316 -1247 409 -1144 
Q 472 -1072 472 -772 
L 472 2313 
Q 472 2622 400 2708 
Q 328 2794 122 2806 
L 122 2922 
L 1347 2922 
L 1347 2538 
Q 1500 2763 1659 2863 
Q 1888 3009 2156 3009 
Q 2478 3009 2742 2806 
Q 3006 2603 3143 2245 
Q 3281 1888 3281 1475 
Q 3281 1031 3139 664 
Q 2997 297 2726 104 
Q 2456 -88 2125 -88 
Q 1884 -88 1675 19 
Q 1519 100 1347 297 
z
M 1347 613 
Q 1616 231 1922 231 
Q 2091 231 2200 409 
Q 2363 672 2363 1409 
Q 2363 2166 2184 2444 
Q 2066 2628 1866 2628 
Q 1550 2628 1347 2172 
L 1347 613 
z
" transform="scale(0.015625)"/>
      <path id="TimesNewRomanPS-BoldMT-77" d="M 3113 -88 
L 2313 2056 
L 1528 -88 
L 1366 -88 
L 588 2031 
Q 413 2516 291 2663 
Q 213 2763 53 2806 
L 53 2922 
L 1528 2922 
L 1528 2806 
Q 1378 2806 1322 2762 
Q 1266 2719 1266 2663 
Q 1266 2609 1366 2344 
L 1794 1203 
L 2206 2344 
L 2175 2419 
Q 2081 2653 2011 2717 
Q 1941 2781 1794 2806 
L 1794 2922 
L 3291 2922 
L 3291 2806 
Q 3116 2797 3069 2758 
Q 3022 2719 3022 2647 
Q 3022 2578 3113 2344 
L 3525 1203 
L 3900 2253 
Q 3981 2478 3981 2559 
Q 3981 2681 3922 2737 
Q 3863 2794 3691 2806 
L 3691 2922 
L 4556 2922 
L 4556 2806 
Q 4413 2788 4328 2705 
Q 4244 2622 4109 2234 
L 3291 -88 
L 3113 -88 
z
" transform="scale(0.015625)"/>
     </defs>
     <use xlink:href="#TimesNewRomanPS-BoldMT-4f"/>
     <use xlink:href="#TimesNewRomanPS-BoldMT-6e" transform="translate(77.783203 0)"/>
     <use xlink:href="#TimesNewRomanPS-BoldMT-65" transform="translate(133.398438 0)"/>
     <use xlink:href="#TimesNewRomanPS-BoldMT-20" transform="translate(177.783203 0)"/>
     <use xlink:href="#TimesNewRomanPS-BoldMT-61" transform="translate(202.783203 0)"/>
     <use xlink:href="#TimesNewRomanPS-BoldMT-70" transform="translate(252.783203 0)"/>
     <use xlink:href="#TimesNewRomanPS-BoldMT-70" transform="translate(308.398438 0)"/>
     <use xlink:href="#TimesNewRomanPS-BoldMT-61" transform="translate(364.013672 0)"/>
     <use xlink:href="#TimesNewRomanPS-BoldMT-72" transform="translate(414.013672 0)"/>
     <use xlink:href="#TimesNewRomanPS-BoldMT-65" transform="translate(456.648438 0)"/>
     <use xlink:href="#TimesNewRomanPS-BoldMT-6e" transform="translate(501.033203 0)"/>
     <use xlink:href="#TimesNewRomanPS-BoldMT-74" transform="translate(556.648438 0)"/>
     <use xlink:href="#TimesNewRomanPS-BoldMT-20" transform="translate(589.949219 0)"/>
     <use xlink:href="#TimesNewRomanPS-BoldMT-77" transform="translate(614.949219 0)"/>
     <use xlink:href="#TimesNewRomanPS-BoldMT-69" transform="translate(687.166016 0)"/>
     <use xlink:href="#TimesNewRomanPS-BoldMT-6e" transform="translate(714.949219 0)"/>
     <use xlink:href="#TimesNewRomanPS-BoldMT-6e" transform="translate(770.564453 0)"/>
     <use xlink:href="#TimesNewRomanPS-BoldMT-65" transform="translate(826.179688 0)"/>
     <use xlink:href="#TimesNewRomanPS-BoldMT-72" transform="translate(870.564453 0)"/>
    </g>
   </g>
   <g id="patch_11">
    <path d="M 88.61178 143.846372 
Q 88.61178 152.501279 88.61178 160.038152 
" style="fill: none; stroke: #1f2933; stroke-linecap: round"/>
    <path d="M 90.41178 156.438152 
L 88.61178 160.038152 
L 86.81178 156.438152 
" style="fill: none; stroke: #1f2933; stroke-linecap: round"/>
   </g>
   <g id="text_7">
    <!-- Conformance -->
    <g style="fill: #1f2933" transform="translate(217.20427 41.230055) scale(0.08 -0.08)">
     <defs>
      <path id="TimesNewRomanPS-BoldMT-43" d="M 4272 4334 
L 4272 2866 
L 4150 2866 
Q 4013 3441 3638 3747 
Q 3263 4053 2788 4053 
Q 2391 4053 2059 3825 
Q 1728 3597 1575 3228 
Q 1378 2756 1378 2178 
Q 1378 1609 1522 1142 
Q 1666 675 1972 436 
Q 2278 197 2766 197 
Q 3166 197 3498 372 
Q 3831 547 4200 975 
L 4200 609 
Q 3844 238 3458 70 
Q 3072 -97 2556 -97 
Q 1878 -97 1351 175 
Q 825 447 539 956 
Q 253 1466 253 2041 
Q 253 2647 570 3190 
Q 888 3734 1427 4034 
Q 1966 4334 2572 4334 
Q 3019 4334 3516 4141 
Q 3803 4028 3881 4028 
Q 3981 4028 4054 4101 
Q 4128 4175 4150 4334 
L 4272 4334 
z
" transform="scale(0.015625)"/>
      <path id="TimesNewRomanPS-BoldMT-66" d="M 1497 2616 
L 1497 588 
Q 1497 294 1559 219 
Q 1659 103 1928 113 
L 1928 0 
L 206 0 
L 206 113 
Q 403 116 486 158 
Q 569 200 600 275 
Q 631 350 631 588 
L 631 2616 
L 206 2616 
L 206 2922 
L 631 2922 
L 631 3138 
L 628 3284 
Q 628 3734 958 4034 
Q 1288 4334 1850 4334 
Q 2234 4334 2420 4190 
Q 2606 4047 2606 3872 
Q 2606 3731 2490 3628 
Q 2375 3525 2184 3525 
Q 2022 3525 1926 3609 
Q 1831 3694 1831 3797 
Q 1831 3825 1850 3913 
Q 1863 3966 1863 4013 
Q 1863 4078 1825 4109 
Q 1775 4156 1703 4156 
Q 1613 4156 1552 4081 
Q 1491 4006 1491 3841 
L 1497 3294 
L 1497 2922 
L 1928 2922 
L 1928 2616 
L 1497 2616 
z
" transform="scale(0.015625)"/>
      <path id="TimesNewRomanPS-BoldMT-6d" d="M 1428 2922 
L 1428 2538 
Q 1669 2800 1873 2904 
Q 2078 3009 2322 3009 
Q 2603 3009 2793 2878 
Q 2984 2747 3088 2478 
Q 3338 2759 3567 2884 
Q 3797 3009 4047 3009 
Q 4350 3009 4529 2870 
Q 4709 2731 4779 2517 
Q 4850 2303 4850 1834 
L 4850 638 
Q 4850 300 4911 219 
Q 4972 138 5166 113 
L 5166 0 
L 3656 0 
L 3656 113 
Q 3834 128 3919 250 
Q 3975 334 3975 638 
L 3975 1894 
Q 3975 2284 3944 2390 
Q 3913 2497 3845 2548 
Q 3778 2600 3688 2600 
Q 3553 2600 3415 2501 
Q 3278 2403 3138 2206 
L 3138 638 
Q 3138 322 3191 241 
Q 3263 125 3466 113 
L 3466 0 
L 1953 0 
L 1953 113 
Q 2075 119 2145 173 
Q 2216 228 2239 304 
Q 2263 381 2263 638 
L 2263 1894 
Q 2263 2291 2231 2391 
Q 2200 2491 2126 2547 
Q 2053 2603 1969 2603 
Q 1844 2603 1741 2538 
Q 1594 2441 1428 2206 
L 1428 638 
Q 1428 328 1489 229 
Q 1550 131 1744 113 
L 1744 0 
L 238 0 
L 238 113 
Q 422 131 500 231 
Q 553 300 553 638 
L 553 2288 
Q 553 2619 492 2700 
Q 431 2781 238 2806 
L 238 2922 
L 1428 2922 
z
" transform="scale(0.015625)"/>
     </defs>
     <use xlink:href="#TimesNewRomanPS-BoldMT-43"/>
     <use xlink:href="#TimesNewRomanPS-BoldMT-6f" transform="translate(72.216797 0)"/>
     <use xlink:href="#TimesNewRomanPS-BoldMT-6e" transform="translate(122.216797 0)"/>
     <use xlink:href="#TimesNewRomanPS-BoldMT-66" transform="translate(177.832031 0)"/>
     <use xlink:href="#TimesNewRomanPS-BoldMT-6f" transform="translate(211.132812 0)"/>
     <use xlink:href="#TimesNewRomanPS-BoldMT-72" transform="translate(261.132812 0)"/>
     <use xlink:href="#TimesNewRomanPS-BoldMT-6d" transform="translate(305.517578 0)"/>
     <use xlink:href="#TimesNewRomanPS-BoldMT-61" transform="translate(388.818359 0)"/>
     <use xlink:href="#TimesNewRomanPS-BoldMT-6e" transform="translate(438.818359 0)"/>
     <use xlink:href="#TimesNewRomanPS-BoldMT-63" transform="translate(494.433594 0)"/>
     <use xlink:href="#TimesNewRomanPS-BoldMT-65" transform="translate(538.818359 0)"/>
    </g>
    <!-- gate -->
    <g style="fill: #1f2933" transform="translate(233.424895 48.768555) scale(0.08 -0.08)">
     <defs>
      <path id="TimesNewRomanPS-BoldMT-67" d="M 2091 2888 
L 3075 2888 
L 3075 2544 
L 2516 2544 
Q 2669 2391 2728 2266 
Q 2803 2097 2803 1913 
Q 2803 1600 2629 1370 
Q 2456 1141 2157 1011 
Q 1859 881 1628 881 
Q 1609 881 1253 897 
Q 1113 897 1017 805 
Q 922 713 922 584 
Q 922 472 1008 400 
Q 1094 328 1288 328 
L 1828 334 
Q 2484 334 2731 191 
Q 3084 -9 3084 -425 
Q 3084 -691 2921 -908 
Q 2759 -1125 2494 -1228 
Q 2091 -1381 1566 -1381 
Q 1172 -1381 847 -1304 
Q 522 -1228 381 -1092 
Q 241 -956 241 -806 
Q 241 -663 348 -548 
Q 456 -434 750 -356 
Q 344 -156 344 200 
Q 344 416 509 619 
Q 675 822 1034 972 
Q 616 1125 428 1375 
Q 241 1625 241 1953 
Q 241 2381 591 2695 
Q 941 3009 1491 3009 
Q 1781 3009 2091 2888 
z
M 1550 2816 
Q 1369 2816 1244 2633 
Q 1119 2450 1119 1875 
Q 1119 1409 1242 1236 
Q 1366 1063 1534 1063 
Q 1722 1063 1847 1234 
Q 1972 1406 1972 1903 
Q 1972 2463 1831 2666 
Q 1731 2816 1550 2816 
z
M 1366 -431 
Q 1047 -431 944 -484 
Q 766 -581 766 -747 
Q 766 -906 950 -1036 
Q 1134 -1166 1644 -1166 
Q 2078 -1166 2326 -1050 
Q 2575 -934 2575 -725 
Q 2575 -647 2528 -594 
Q 2444 -500 2273 -465 
Q 2103 -431 1366 -431 
z
" transform="scale(0.015625)"/>
     </defs>
     <use xlink:href="#TimesNewRomanPS-BoldMT-67"/>
     <use xlink:href="#TimesNewRomanPS-BoldMT-61" transform="translate(50 0)"/>
     <use xlink:href="#TimesNewRomanPS-BoldMT-74" transform="translate(100 0)"/>
     <use xlink:href="#TimesNewRomanPS-BoldMT-65" transform="translate(133.300781 0)"/>
    </g>
   </g>
   <g id="text_8">
    <!-- S1 static -->
    <g style="fill: #1f2933" transform="translate(321.569905 37.313805) scale(0.08 -0.08)">
     <defs>
      <path id="TimesNewRomanPSMT-31" d="M 750 3822 
L 1781 4325 
L 1884 4325 
L 1884 747 
Q 1884 391 1914 303 
Q 1944 216 2037 169 
Q 2131 122 2419 116 
L 2419 0 
L 825 0 
L 825 116 
Q 1125 122 1212 167 
Q 1300 213 1334 289 
Q 1369 366 1369 747 
L 1369 3034 
Q 1369 3497 1338 3628 
Q 1316 3728 1258 3775 
Q 1200 3822 1119 3822 
Q 1003 3822 797 3725 
L 750 3822 
z
" transform="scale(0.015625)"/>
     </defs>
     <use xlink:href="#TimesNewRomanPSMT-53"/>
     <use xlink:href="#TimesNewRomanPSMT-31" transform="translate(55.615234 0)"/>
     <use xlink:href="#TimesNewRomanPSMT-20" transform="translate(105.615234 0)"/>
     <use xlink:href="#TimesNewRomanPSMT-73" transform="translate(130.615234 0)"/>
     <use xlink:href="#TimesNewRomanPSMT-74" transform="translate(169.53125 0)"/>
     <use xlink:href="#TimesNewRomanPSMT-61" transform="translate(197.314453 0)"/>
     <use xlink:href="#TimesNewRomanPSMT-74" transform="translate(241.699219 0)"/>
     <use xlink:href="#TimesNewRomanPSMT-69" transform="translate(269.482422 0)"/>
     <use xlink:href="#TimesNewRomanPSMT-63" transform="translate(297.265625 0)"/>
    </g>
    <!-- S2 post-insert -->
    <g style="fill: #1f2933" transform="translate(313.124905 45.135555) scale(0.08 -0.08)">
     <defs>
      <path id="TimesNewRomanPSMT-32" d="M 2934 816 
L 2638 0 
L 138 0 
L 138 116 
Q 1241 1122 1691 1759 
Q 2141 2397 2141 2925 
Q 2141 3328 1894 3587 
Q 1647 3847 1303 3847 
Q 991 3847 742 3664 
Q 494 3481 375 3128 
L 259 3128 
Q 338 3706 661 4015 
Q 984 4325 1469 4325 
Q 1984 4325 2329 3994 
Q 2675 3663 2675 3213 
Q 2675 2891 2525 2569 
Q 2294 2063 1775 1497 
Q 997 647 803 472 
L 1909 472 
Q 2247 472 2383 497 
Q 2519 522 2628 598 
Q 2738 675 2819 816 
L 2934 816 
z
" transform="scale(0.015625)"/>
     </defs>
     <use xlink:href="#TimesNewRomanPSMT-53"/>
     <use xlink:href="#TimesNewRomanPSMT-32" transform="translate(55.615234 0)"/>
     <use xlink:href="#TimesNewRomanPSMT-20" transform="translate(105.615234 0)"/>
     <use xlink:href="#TimesNewRomanPSMT-70" transform="translate(130.615234 0)"/>
     <use xlink:href="#TimesNewRomanPSMT-6f" transform="translate(180.615234 0)"/>
     <use xlink:href="#TimesNewRomanPSMT-73" transform="translate(230.615234 0)"/>
     <use xlink:href="#TimesNewRomanPSMT-74" transform="translate(269.53125 0)"/>
     <use xlink:href="#TimesNewRomanPSMT-2d" transform="translate(297.314453 0)"/>
     <use xlink:href="#TimesNewRomanPSMT-69" transform="translate(330.615234 0)"/>
     <use xlink:href="#TimesNewRomanPSMT-6e" transform="translate(358.398438 0)"/>
     <use xlink:href="#TimesNewRomanPSMT-73" transform="translate(408.398438 0)"/>
     <use xlink:href="#TimesNewRomanPSMT-65" transform="translate(447.314453 0)"/>
     <use xlink:href="#TimesNewRomanPSMT-72" transform="translate(491.699219 0)"/>
     <use xlink:href="#TimesNewRomanPSMT-74" transform="translate(525 0)"/>
    </g>
    <!-- S3 multi-evidence -->
    <g style="fill: #1f2933" transform="translate(306.021155 52.957305) scale(0.08 -0.08)">
     <defs>
      <path id="TimesNewRomanPSMT-33" d="M 325 3431 
Q 506 3859 782 4092 
Q 1059 4325 1472 4325 
Q 1981 4325 2253 3994 
Q 2459 3747 2459 3466 
Q 2459 3003 1878 2509 
Q 2269 2356 2469 2072 
Q 2669 1788 2669 1403 
Q 2669 853 2319 450 
Q 1863 -75 997 -75 
Q 569 -75 414 31 
Q 259 138 259 259 
Q 259 350 332 419 
Q 406 488 509 488 
Q 588 488 669 463 
Q 722 447 909 348 
Q 1097 250 1169 231 
Q 1284 197 1416 197 
Q 1734 197 1970 444 
Q 2206 691 2206 1028 
Q 2206 1275 2097 1509 
Q 2016 1684 1919 1775 
Q 1784 1900 1550 2001 
Q 1316 2103 1072 2103 
L 972 2103 
L 972 2197 
Q 1219 2228 1467 2375 
Q 1716 2522 1828 2728 
Q 1941 2934 1941 3181 
Q 1941 3503 1739 3701 
Q 1538 3900 1238 3900 
Q 753 3900 428 3381 
L 325 3431 
z
" transform="scale(0.015625)"/>
      <path id="TimesNewRomanPSMT-75" d="M 2709 2863 
L 2709 1128 
Q 2709 631 2732 520 
Q 2756 409 2807 365 
Q 2859 322 2928 322 
Q 3025 322 3147 375 
L 3191 266 
L 2334 -88 
L 2194 -88 
L 2194 519 
Q 1825 119 1631 15 
Q 1438 -88 1222 -88 
Q 981 -88 804 51 
Q 628 191 559 409 
Q 491 628 491 1028 
L 491 2306 
Q 491 2509 447 2587 
Q 403 2666 317 2708 
Q 231 2750 6 2747 
L 6 2863 
L 1009 2863 
L 1009 947 
Q 1009 547 1148 422 
Q 1288 297 1484 297 
Q 1619 297 1789 381 
Q 1959 466 2194 703 
L 2194 2325 
Q 2194 2569 2105 2655 
Q 2016 2741 1734 2747 
L 1734 2863 
L 2709 2863 
z
" transform="scale(0.015625)"/>
     </defs>
     <use xlink:href="#TimesNewRomanPSMT-53"/>
     <use xlink:href="#TimesNewRomanPSMT-33" transform="translate(55.615234 0)"/>
     <use xlink:href="#TimesNewRomanPSMT-20" transform="translate(105.615234 0)"/>
     <use xlink:href="#TimesNewRomanPSMT-6d" transform="translate(130.615234 0)"/>
     <use xlink:href="#TimesNewRomanPSMT-75" transform="translate(208.398438 0)"/>
     <use xlink:href="#TimesNewRomanPSMT-6c" transform="translate(258.398438 0)"/>
     <use xlink:href="#TimesNewRomanPSMT-74" transform="translate(286.181641 0)"/>
     <use xlink:href="#TimesNewRomanPSMT-69" transform="translate(313.964844 0)"/>
     <use xlink:href="#TimesNewRomanPSMT-2d" transform="translate(341.748047 0)"/>
     <use xlink:href="#TimesNewRomanPSMT-65" transform="translate(375.048828 0)"/>
     <use xlink:href="#TimesNewRomanPSMT-76" transform="translate(419.433594 0)"/>
     <use xlink:href="#TimesNewRomanPSMT-69" transform="translate(469.433594 0)"/>
     <use xlink:href="#TimesNewRomanPSMT-64" transform="translate(497.216797 0)"/>
     <use xlink:href="#TimesNewRomanPSMT-65" transform="translate(547.216797 0)"/>
     <use xlink:href="#TimesNewRomanPSMT-6e" transform="translate(591.601562 0)"/>
     <use xlink:href="#TimesNewRomanPSMT-63" transform="translate(641.601562 0)"/>
     <use xlink:href="#TimesNewRomanPSMT-65" transform="translate(685.986328 0)"/>
    </g>
   </g>
   <g id="text_9">
    <!-- p99 policy -->
    <g style="fill: #1f2933" transform="translate(223.53427 107.93172) scale(0.08 -0.08)">
     <defs>
      <path id="TimesNewRomanPSMT-39" d="M 338 -88 
L 338 28 
Q 744 34 1094 217 
Q 1444 400 1770 856 
Q 2097 1313 2225 1859 
Q 1734 1544 1338 1544 
Q 891 1544 572 1889 
Q 253 2234 253 2806 
Q 253 3363 572 3797 
Q 956 4325 1575 4325 
Q 2097 4325 2469 3894 
Q 2925 3359 2925 2575 
Q 2925 1869 2578 1258 
Q 2231 647 1613 244 
Q 1109 -88 516 -88 
L 338 -88 
z
M 2275 2091 
Q 2331 2497 2331 2741 
Q 2331 3044 2228 3395 
Q 2125 3747 1936 3934 
Q 1747 4122 1506 4122 
Q 1228 4122 1018 3872 
Q 809 3622 809 3128 
Q 809 2469 1088 2097 
Q 1291 1828 1588 1828 
Q 1731 1828 1928 1897 
Q 2125 1966 2275 2091 
z
" transform="scale(0.015625)"/>
     </defs>
     <use xlink:href="#TimesNewRomanPSMT-70"/>
     <use xlink:href="#TimesNewRomanPSMT-39" transform="translate(50 0)"/>
     <use xlink:href="#TimesNewRomanPSMT-39" transform="translate(100 0)"/>
     <use xlink:href="#TimesNewRomanPSMT-20" transform="translate(150 0)"/>
     <use xlink:href="#TimesNewRomanPSMT-70" transform="translate(175 0)"/>
     <use xlink:href="#TimesNewRomanPSMT-6f" transform="translate(225 0)"/>
     <use xlink:href="#TimesNewRomanPSMT-6c" transform="translate(275 0)"/>
     <use xlink:href="#TimesNewRomanPSMT-69" transform="translate(302.783203 0)"/>
     <use xlink:href="#TimesNewRomanPSMT-63" transform="translate(330.566406 0)"/>
     <use xlink:href="#TimesNewRomanPSMT-79" transform="translate(374.951172 0)"/>
    </g>
    <!-- context-cost proxy -->
    <g style="fill: #1f2933" transform="translate(210.651145 115.76847) scale(0.08 -0.08)">
     <use xlink:href="#TimesNewRomanPSMT-63"/>
     <use xlink:href="#TimesNewRomanPSMT-6f" transform="translate(44.384766 0)"/>
     <use xlink:href="#TimesNewRomanPSMT-6e" transform="translate(94.384766 0)"/>
     <use xlink:href="#TimesNewRomanPSMT-74" transform="translate(144.384766 0)"/>
     <use xlink:href="#TimesNewRomanPSMT-65" transform="translate(172.167969 0)"/>
     <use xlink:href="#TimesNewRomanPSMT-78" transform="translate(216.552734 0)"/>
     <use xlink:href="#TimesNewRomanPSMT-74" transform="translate(266.552734 0)"/>
     <use xlink:href="#TimesNewRomanPSMT-2d" transform="translate(294.335938 0)"/>
     <use xlink:href="#TimesNewRomanPSMT-63" transform="translate(327.636719 0)"/>
     <use xlink:href="#TimesNewRomanPSMT-6f" transform="translate(372.021484 0)"/>
     <use xlink:href="#TimesNewRomanPSMT-73" transform="translate(422.021484 0)"/>
     <use xlink:href="#TimesNewRomanPSMT-74" transform="translate(460.9375 0)"/>
     <use xlink:href="#TimesNewRomanPSMT-20" transform="translate(488.720703 0)"/>
     <use xlink:href="#TimesNewRomanPSMT-70" transform="translate(513.720703 0)"/>
     <use xlink:href="#TimesNewRomanPSMT-72" transform="translate(563.720703 0)"/>
     <use xlink:href="#TimesNewRomanPSMT-6f" transform="translate(597.021484 0)"/>
     <use xlink:href="#TimesNewRomanPSMT-78" transform="translate(647.021484 0)"/>
     <use xlink:href="#TimesNewRomanPSMT-79" transform="translate(697.021484 0)"/>
    </g>
   </g>
   <g id="text_10">
    <!-- Budget ladder -->
    <g style="fill: #1f2933" transform="translate(312.68678 107.93922) scale(0.08 -0.08)">
     <defs>
      <path id="TimesNewRomanPSMT-42" d="M 2956 2163 
Q 3397 2069 3616 1863 
Q 3919 1575 3919 1159 
Q 3919 844 3719 555 
Q 3519 266 3170 133 
Q 2822 0 2106 0 
L 106 0 
L 106 116 
L 266 116 
Q 531 116 647 284 
Q 719 394 719 750 
L 719 3488 
Q 719 3881 628 3984 
Q 506 4122 266 4122 
L 106 4122 
L 106 4238 
L 1938 4238 
Q 2450 4238 2759 4163 
Q 3228 4050 3475 3764 
Q 3722 3478 3722 3106 
Q 3722 2788 3528 2536 
Q 3334 2284 2956 2163 
z
M 1319 2331 
Q 1434 2309 1582 2298 
Q 1731 2288 1909 2288 
Q 2366 2288 2595 2386 
Q 2825 2484 2947 2687 
Q 3069 2891 3069 3131 
Q 3069 3503 2766 3765 
Q 2463 4028 1881 4028 
Q 1569 4028 1319 3959 
L 1319 2331 
z
M 1319 306 
Q 1681 222 2034 222 
Q 2600 222 2897 476 
Q 3194 731 3194 1106 
Q 3194 1353 3059 1581 
Q 2925 1809 2622 1940 
Q 2319 2072 1872 2072 
Q 1678 2072 1540 2065 
Q 1403 2059 1319 2044 
L 1319 306 
z
" transform="scale(0.015625)"/>
      <path id="TimesNewRomanPSMT-67" d="M 966 1044 
Q 703 1172 562 1401 
Q 422 1631 422 1909 
Q 422 2334 742 2640 
Q 1063 2947 1563 2947 
Q 1972 2947 2272 2747 
L 2878 2747 
Q 3013 2747 3034 2739 
Q 3056 2731 3066 2713 
Q 3084 2684 3084 2613 
Q 3084 2531 3069 2500 
Q 3059 2484 3036 2475 
Q 3013 2466 2878 2466 
L 2506 2466 
Q 2681 2241 2681 1891 
Q 2681 1491 2375 1206 
Q 2069 922 1553 922 
Q 1341 922 1119 984 
Q 981 866 932 777 
Q 884 688 884 625 
Q 884 572 936 522 
Q 988 472 1138 450 
Q 1225 438 1575 428 
Q 2219 413 2409 384 
Q 2700 344 2873 169 
Q 3047 -6 3047 -263 
Q 3047 -616 2716 -925 
Q 2228 -1381 1444 -1381 
Q 841 -1381 425 -1109 
Q 191 -953 191 -784 
Q 191 -709 225 -634 
Q 278 -519 444 -313 
Q 466 -284 763 25 
Q 600 122 533 198 
Q 466 275 466 372 
Q 466 481 555 628 
Q 644 775 966 1044 
z
M 1509 2797 
Q 1278 2797 1122 2612 
Q 966 2428 966 2047 
Q 966 1553 1178 1281 
Q 1341 1075 1591 1075 
Q 1828 1075 1981 1253 
Q 2134 1431 2134 1813 
Q 2134 2309 1919 2591 
Q 1759 2797 1509 2797 
z
M 934 0 
Q 788 -159 713 -296 
Q 638 -434 638 -550 
Q 638 -700 819 -813 
Q 1131 -1006 1722 -1006 
Q 2284 -1006 2551 -807 
Q 2819 -609 2819 -384 
Q 2819 -222 2659 -153 
Q 2497 -84 2016 -72 
Q 1313 -53 934 0 
z
" transform="scale(0.015625)"/>
     </defs>
     <use xlink:href="#TimesNewRomanPSMT-42"/>
     <use xlink:href="#TimesNewRomanPSMT-75" transform="translate(66.699219 0)"/>
     <use xlink:href="#TimesNewRomanPSMT-64" transform="translate(116.699219 0)"/>
     <use xlink:href="#TimesNewRomanPSMT-67" transform="translate(166.699219 0)"/>
     <use xlink:href="#TimesNewRomanPSMT-65" transform="translate(216.699219 0)"/>
     <use xlink:href="#TimesNewRomanPSMT-74" transform="translate(261.083984 0)"/>
     <use xlink:href="#TimesNewRomanPSMT-20" transform="translate(288.867188 0)"/>
     <use xlink:href="#TimesNewRomanPSMT-6c" transform="translate(313.867188 0)"/>
     <use xlink:href="#TimesNewRomanPSMT-61" transform="translate(341.650391 0)"/>
     <use xlink:href="#TimesNewRomanPSMT-64" transform="translate(386.035156 0)"/>
     <use xlink:href="#TimesNewRomanPSMT-64" transform="translate(436.035156 0)"/>
     <use xlink:href="#TimesNewRomanPSMT-65" transform="translate(486.035156 0)"/>
     <use xlink:href="#TimesNewRomanPSMT-72" transform="translate(530.419922 0)"/>
    </g>
    <!-- paired audits -->
    <g style="fill: #1f2933" transform="translate(314.68678 115.77597) scale(0.08 -0.08)">
     <use xlink:href="#TimesNewRomanPSMT-70"/>
     <use xlink:href="#TimesNewRomanPSMT-61" transform="translate(50 0)"/>
     <use xlink:href="#TimesNewRomanPSMT-69" transform="translate(94.384766 0)"/>
     <use xlink:href="#TimesNewRomanPSMT-72" transform="translate(122.167969 0)"/>
     <use xlink:href="#TimesNewRomanPSMT-65" transform="translate(155.46875 0)"/>
     <use xlink:href="#TimesNewRomanPSMT-64" transform="translate(199.853516 0)"/>
     <use xlink:href="#TimesNewRomanPSMT-20" transform="translate(249.853516 0)"/>
     <use xlink:href="#TimesNewRomanPSMT-61" transform="translate(274.853516 0)"/>
     <use xlink:href="#TimesNewRomanPSMT-75" transform="translate(319.238281 0)"/>
     <use xlink:href="#TimesNewRomanPSMT-64" transform="translate(369.238281 0)"/>
     <use xlink:href="#TimesNewRomanPSMT-69" transform="translate(419.238281 0)"/>
     <use xlink:href="#TimesNewRomanPSMT-74" transform="translate(447.021484 0)"/>
     <use xlink:href="#TimesNewRomanPSMT-73" transform="translate(474.804688 0)"/>
    </g>
   </g>
   <g id="text_11">
    <!-- Decision card: -->
    <g style="fill: #1f2933" transform="translate(263.333025 176.511785) scale(0.08 -0.08)">
     <defs>
      <path id="TimesNewRomanPS-BoldMT-44" d="M 84 0 
L 84 116 
L 225 116 
Q 409 116 507 173 
Q 606 231 653 331 
Q 681 397 681 725 
L 681 3513 
Q 681 3838 647 3919 
Q 613 4000 508 4061 
Q 403 4122 225 4122 
L 84 4122 
L 84 4238 
L 1981 4238 
Q 2741 4238 3203 4031 
Q 3769 3778 4061 3265 
Q 4353 2753 4353 2106 
Q 4353 1659 4209 1282 
Q 4066 906 3837 661 
Q 3609 416 3311 267 
Q 3013 119 2581 38 
Q 2391 0 1981 0 
L 84 0 
z
M 1700 3997 
L 1700 691 
Q 1700 428 1725 368 
Q 1750 309 1809 278 
Q 1894 231 2053 231 
Q 2575 231 2850 588 
Q 3225 1069 3225 2081 
Q 3225 2897 2969 3384 
Q 2766 3766 2447 3903 
Q 2222 4000 1700 3997 
z
" transform="scale(0.015625)"/>
      <path id="TimesNewRomanPS-BoldMT-3a" d="M 1069 3006 
Q 1284 3006 1436 2854 
Q 1588 2703 1588 2488 
Q 1588 2272 1436 2120 
Q 1284 1969 1069 1969 
Q 853 1969 701 2120 
Q 550 2272 550 2488 
Q 550 2703 701 2854 
Q 853 3006 1069 3006 
z
M 1066 963 
Q 1284 963 1436 809 
Q 1588 656 1588 441 
Q 1588 225 1434 73 
Q 1281 -78 1066 -78 
Q 850 -78 698 73 
Q 547 225 547 441 
Q 547 656 698 809 
Q 850 963 1066 963 
z
" transform="scale(0.015625)"/>
     </defs>
     <use xlink:href="#TimesNewRomanPS-BoldMT-44"/>
     <use xlink:href="#TimesNewRomanPS-BoldMT-65" transform="translate(72.216797 0)"/>
     <use xlink:href="#TimesNewRomanPS-BoldMT-63" transform="translate(116.601562 0)"/>
     <use xlink:href="#TimesNewRomanPS-BoldMT-69" transform="translate(160.986328 0)"/>
     <use xlink:href="#TimesNewRomanPS-BoldMT-73" transform="translate(188.769531 0)"/>
     <use xlink:href="#TimesNewRomanPS-BoldMT-69" transform="translate(227.685547 0)"/>
     <use xlink:href="#TimesNewRomanPS-BoldMT-6f" transform="translate(255.46875 0)"/>
     <use xlink:href="#TimesNewRomanPS-BoldMT-6e" transform="translate(305.46875 0)"/>
     <use xlink:href="#TimesNewRomanPS-BoldMT-20" transform="translate(361.083984 0)"/>
     <use xlink:href="#TimesNewRomanPS-BoldMT-63" transform="translate(386.083984 0)"/>
     <use xlink:href="#TimesNewRomanPS-BoldMT-61" transform="translate(430.46875 0)"/>
     <use xlink:href="#TimesNewRomanPS-BoldMT-72" transform="translate(480.46875 0)"/>
     <use xlink:href="#TimesNewRomanPS-BoldMT-64" transform="translate(524.853516 0)"/>
     <use xlink:href="#TimesNewRomanPS-BoldMT-3a" transform="translate(580.46875 0)"/>
    </g>
    <!-- strict, cost-only/no-p99, -->
    <g style="fill: #1f2933" transform="translate(247.7774 184.187785) scale(0.08 -0.08)">
     <defs>
      <path id="TimesNewRomanPS-BoldMT-2c" d="M 319 -1122 
L 319 -984 
Q 681 -828 845 -579 
Q 1009 -331 1009 -72 
Q 1009 -19 988 9 
Q 966 34 944 34 
Q 925 34 888 13 
Q 797 -41 663 -41 
Q 478 -41 342 103 
Q 206 247 206 441 
Q 206 647 362 803 
Q 519 959 741 959 
Q 1009 959 1200 751 
Q 1391 544 1391 181 
Q 1391 -266 1120 -612 
Q 850 -959 319 -1122 
z
" transform="scale(0.015625)"/>
      <path id="TimesNewRomanPS-BoldMT-2d" d="M 1978 1147 
L 156 1147 
L 156 1794 
L 1978 1794 
L 1978 1147 
z
" transform="scale(0.015625)"/>
      <path id="TimesNewRomanPS-BoldMT-79" d="M 1556 -119 
L 613 2047 
Q 400 2538 298 2650 
Q 197 2763 53 2806 
L 53 2922 
L 1606 2922 
L 1606 2806 
Q 1453 2800 1390 2747 
Q 1328 2694 1328 2619 
Q 1328 2500 1484 2150 
L 1984 1006 
L 2325 1891 
Q 2509 2363 2509 2547 
Q 2509 2663 2432 2731 
Q 2356 2800 2163 2806 
L 2163 2922 
L 3141 2922 
L 3141 2806 
Q 2997 2791 2906 2695 
Q 2816 2600 2603 2047 
L 1769 -119 
Q 1453 -931 1300 -1119 
Q 1084 -1381 759 -1381 
Q 500 -1381 339 -1232 
Q 178 -1084 178 -875 
Q 178 -694 289 -575 
Q 400 -456 563 -456 
Q 719 -456 814 -556 
Q 909 -656 913 -866 
Q 916 -984 941 -1019 
Q 966 -1053 1013 -1053 
Q 1088 -1053 1172 -963 
Q 1297 -831 1466 -363 
L 1556 -119 
z
" transform="scale(0.015625)"/>
      <path id="TimesNewRomanPS-BoldMT-2f" d="M 1797 4334 
L 406 -97 
L 6 -97 
L 1403 4334 
L 1797 4334 
z
" transform="scale(0.015625)"/>
      <path id="TimesNewRomanPS-BoldMT-39" d="M 197 -88 
L 197 0 
Q 716 119 1077 350 
Q 1438 581 1648 922 
Q 1859 1263 1944 1706 
Q 1750 1606 1614 1567 
Q 1478 1528 1328 1528 
Q 847 1528 526 1875 
Q 206 2222 206 2825 
Q 206 3244 379 3592 
Q 553 3941 875 4133 
Q 1197 4325 1544 4325 
Q 1916 4325 2247 4112 
Q 2578 3900 2775 3497 
Q 2972 3094 2972 2578 
Q 2972 1909 2651 1296 
Q 2331 684 1697 314 
Q 1063 -56 197 -88 
z
M 1991 1969 
Q 2022 2319 2022 2584 
Q 2022 3153 1891 3644 
Q 1816 3916 1669 4044 
Q 1591 4113 1466 4113 
Q 1309 4113 1222 3978 
Q 1100 3794 1100 3275 
Q 1100 2409 1306 2081 
Q 1441 1869 1669 1869 
Q 1791 1869 1991 1969 
z
" transform="scale(0.015625)"/>
     </defs>
     <use xlink:href="#TimesNewRomanPS-BoldMT-73"/>
     <use xlink:href="#TimesNewRomanPS-BoldMT-74" transform="translate(38.916016 0)"/>
     <use xlink:href="#TimesNewRomanPS-BoldMT-72" transform="translate(72.216797 0)"/>
     <use xlink:href="#TimesNewRomanPS-BoldMT-69" transform="translate(116.601562 0)"/>
     <use xlink:href="#TimesNewRomanPS-BoldMT-63" transform="translate(144.384766 0)"/>
     <use xlink:href="#TimesNewRomanPS-BoldMT-74" transform="translate(188.769531 0)"/>
     <use xlink:href="#TimesNewRomanPS-BoldMT-2c" transform="translate(222.070312 0)"/>
     <use xlink:href="#TimesNewRomanPS-BoldMT-20" transform="translate(247.070312 0)"/>
     <use xlink:href="#TimesNewRomanPS-BoldMT-63" transform="translate(272.070312 0)"/>
     <use xlink:href="#TimesNewRomanPS-BoldMT-6f" transform="translate(316.455078 0)"/>
     <use xlink:href="#TimesNewRomanPS-BoldMT-73" transform="translate(366.455078 0)"/>
     <use xlink:href="#TimesNewRomanPS-BoldMT-74" transform="translate(405.371094 0)"/>
     <use xlink:href="#TimesNewRomanPS-BoldMT-2d" transform="translate(438.671875 0)"/>
     <use xlink:href="#TimesNewRomanPS-BoldMT-6f" transform="translate(471.972656 0)"/>
     <use xlink:href="#TimesNewRomanPS-BoldMT-6e" transform="translate(521.972656 0)"/>
     <use xlink:href="#TimesNewRomanPS-BoldMT-6c" transform="translate(577.587891 0)"/>
     <use xlink:href="#TimesNewRomanPS-BoldMT-79" transform="translate(605.371094 0)"/>
     <use xlink:href="#TimesNewRomanPS-BoldMT-2f" transform="translate(655.371094 0)"/>
     <use xlink:href="#TimesNewRomanPS-BoldMT-6e" transform="translate(683.154297 0)"/>
     <use xlink:href="#TimesNewRomanPS-BoldMT-6f" transform="translate(738.769531 0)"/>
     <use xlink:href="#TimesNewRomanPS-BoldMT-2d" transform="translate(788.769531 0)"/>
     <use xlink:href="#TimesNewRomanPS-BoldMT-70" transform="translate(822.070312 0)"/>
     <use xlink:href="#TimesNewRomanPS-BoldMT-39" transform="translate(877.685547 0)"/>
     <use xlink:href="#TimesNewRomanPS-BoldMT-39" transform="translate(927.685547 0)"/>
     <use xlink:href="#TimesNewRomanPS-BoldMT-2c" transform="translate(977.685547 0)"/>
    </g>
    <!-- quality-first -->
    <g style="fill: #1f2933" transform="translate(267.441775 191.878785) scale(0.08 -0.08)">
     <defs>
      <path id="TimesNewRomanPS-BoldMT-71" d="M 2178 306 
Q 1988 106 1822 25 
Q 1603 -88 1366 -88 
Q 816 -88 497 403 
Q 244 794 244 1338 
Q 244 1791 436 2189 
Q 628 2588 964 2798 
Q 1300 3009 1675 3009 
Q 1925 3009 2120 2925 
Q 2316 2841 2456 2669 
L 2947 3009 
L 3053 3009 
L 3053 -775 
Q 3053 -1063 3103 -1134 
Q 3184 -1250 3431 -1253 
L 3431 -1369 
L 1744 -1369 
L 1744 -1253 
Q 1938 -1253 2025 -1209 
Q 2113 -1166 2145 -1094 
Q 2178 -1022 2178 -800 
L 2178 306 
z
M 2178 591 
L 2178 1794 
Q 2178 2297 2123 2459 
Q 2069 2622 1922 2741 
Q 1847 2800 1731 2800 
Q 1494 2800 1363 2591 
Q 1156 2269 1156 1394 
Q 1156 722 1334 450 
Q 1456 266 1650 266 
Q 1763 266 1905 344 
Q 2047 422 2178 591 
z
" transform="scale(0.015625)"/>
     </defs>
     <use xlink:href="#TimesNewRomanPS-BoldMT-71"/>
     <use xlink:href="#TimesNewRomanPS-BoldMT-75" transform="translate(55.615234 0)"/>
     <use xlink:href="#TimesNewRomanPS-BoldMT-61" transform="translate(111.230469 0)"/>
     <use xlink:href="#TimesNewRomanPS-BoldMT-6c" transform="translate(161.230469 0)"/>
     <use xlink:href="#TimesNewRomanPS-BoldMT-69" transform="translate(189.013672 0)"/>
     <use xlink:href="#TimesNewRomanPS-BoldMT-74" transform="translate(216.796875 0)"/>
     <use xlink:href="#TimesNewRomanPS-BoldMT-79" transform="translate(250.097656 0)"/>
     <use xlink:href="#TimesNewRomanPS-BoldMT-2d" transform="translate(300.097656 0)"/>
     <use xlink:href="#TimesNewRomanPS-BoldMT-66" transform="translate(333.398438 0)"/>
     <use xlink:href="#TimesNewRomanPS-BoldMT-69" transform="translate(366.699219 0)"/>
     <use xlink:href="#TimesNewRomanPS-BoldMT-72" transform="translate(394.482422 0)"/>
     <use xlink:href="#TimesNewRomanPS-BoldMT-73" transform="translate(438.867188 0)"/>
     <use xlink:href="#TimesNewRomanPS-BoldMT-74" transform="translate(477.783203 0)"/>
    </g>
   </g>
   <g id="patch_12">
    <path d="M 282.022129 43.21368 
Q 287.887163 43.21368 292.634162 43.21368 
" style="fill: none; stroke: #1f2933; stroke-linecap: round"/>
    <path d="M 289.034162 41.41368 
L 292.634162 43.21368 
L 289.034162 45.01368 
" style="fill: none; stroke: #1f2933; stroke-linecap: round"/>
   </g>
   <g id="patch_13">
    <path d="M 244.725732 127.069248 
Q 256.317222 144.44842 267.288339 160.897464 
" style="fill: none; stroke: #1f2933; stroke-linecap: round"/>
    <path d="M 266.788254 156.903729 
L 267.288339 160.897464 
L 263.7933 158.901291 
" style="fill: none; stroke: #1f2933; stroke-linecap: round"/>
   </g>
   <g id="patch_14">
    <path d="M 331.042818 127.069248 
Q 319.451328 144.44842 308.480211 160.897464 
" style="fill: none; stroke: #1f2933; stroke-linecap: round"/>
    <path d="M 311.97525 158.901291 
L 308.480211 160.897464 
L 308.980296 156.903729 
" style="fill: none; stroke: #1f2933; stroke-linecap: round"/>
   </g>
   <g id="text_12">
    <!-- A reportable winner is conditional on conformance, workload, objective, budget, -->
    <g style="fill: #1f2933" transform="translate(62.02325 221.77174) scale(0.08 -0.08)">
     <defs>
      <path id="TimesNewRomanPS-BoldMT-41" d="M 2663 1206 
L 1166 1206 
L 988 794 
Q 900 588 900 453 
Q 900 275 1044 191 
Q 1128 141 1459 116 
L 1459 0 
L 50 0 
L 50 116 
Q 278 150 425 304 
Q 572 459 788 944 
L 2303 4325 
L 2363 4325 
L 3891 850 
Q 4109 356 4250 228 
Q 4356 131 4550 116 
L 4550 0 
L 2500 0 
L 2500 116 
L 2584 116 
Q 2831 116 2931 184 
Q 3000 234 3000 328 
Q 3000 384 2981 444 
Q 2975 472 2888 678 
L 2663 1206 
z
M 2556 1438 
L 1925 2897 
L 1275 1438 
L 2556 1438 
z
" transform="scale(0.015625)"/>
      <path id="TimesNewRomanPS-BoldMT-6b" d="M 1403 4238 
L 1403 1450 
L 2081 2116 
Q 2291 2319 2342 2409 
Q 2394 2500 2394 2584 
Q 2394 2669 2325 2725 
Q 2256 2781 2056 2806 
L 2056 2922 
L 3366 2922 
L 3366 2806 
Q 3178 2797 3037 2717 
Q 2897 2638 2488 2238 
L 2169 1925 
L 2856 919 
Q 3272 306 3350 231 
Q 3456 125 3619 113 
L 3619 0 
L 2109 0 
L 2109 113 
Q 2209 113 2254 150 
Q 2300 188 2300 231 
Q 2300 303 2169 497 
L 1591 1344 
L 1403 1159 
L 1403 634 
Q 1403 300 1465 217 
Q 1528 134 1722 113 
L 1722 0 
L 213 0 
L 213 113 
Q 397 131 475 231 
Q 528 300 528 634 
L 528 3603 
Q 528 3934 467 4015 
Q 406 4097 213 4122 
L 213 4238 
L 1403 4238 
z
" transform="scale(0.015625)"/>
      <path id="TimesNewRomanPS-BoldMT-6a" d="M 1113 4334 
Q 1313 4334 1452 4195 
Q 1591 4056 1591 3859 
Q 1591 3659 1450 3518 
Q 1309 3378 1113 3378 
Q 916 3378 775 3518 
Q 634 3659 634 3859 
Q 634 4056 773 4195 
Q 913 4334 1113 4334 
z
M 1550 2922 
L 1550 -103 
Q 1550 -528 1497 -731 
Q 1419 -1025 1186 -1203 
Q 953 -1381 572 -1381 
Q 188 -1381 5 -1225 
Q -178 -1069 -178 -847 
Q -178 -709 -82 -607 
Q 13 -506 141 -506 
Q 259 -506 328 -576 
Q 397 -647 397 -788 
Q 397 -825 394 -875 
Q 388 -941 388 -966 
Q 388 -1075 438 -1128 
Q 488 -1181 566 -1181 
Q 638 -1181 689 -1118 
Q 741 -1056 741 -941 
Q 741 -878 722 -688 
Q 691 -341 688 -269 
L 678 472 
L 678 2278 
L 681 2441 
Q 681 2638 614 2711 
Q 547 2784 331 2806 
L 331 2922 
L 1550 2922 
z
" transform="scale(0.015625)"/>
     </defs>
     <use xlink:href="#TimesNewRomanPS-BoldMT-41"/>
     <use xlink:href="#TimesNewRomanPS-BoldMT-20" transform="translate(66.716797 0)"/>
     <use xlink:href="#TimesNewRomanPS-BoldMT-72" transform="translate(91.716797 0)"/>
     <use xlink:href="#TimesNewRomanPS-BoldMT-65" transform="translate(134.351562 0)"/>
     <use xlink:href="#TimesNewRomanPS-BoldMT-70" transform="translate(178.736328 0)"/>
     <use xlink:href="#TimesNewRomanPS-BoldMT-6f" transform="translate(234.351562 0)"/>
     <use xlink:href="#TimesNewRomanPS-BoldMT-72" transform="translate(284.351562 0)"/>
     <use xlink:href="#TimesNewRomanPS-BoldMT-74" transform="translate(328.736328 0)"/>
     <use xlink:href="#TimesNewRomanPS-BoldMT-61" transform="translate(362.037109 0)"/>
     <use xlink:href="#TimesNewRomanPS-BoldMT-62" transform="translate(412.037109 0)"/>
     <use xlink:href="#TimesNewRomanPS-BoldMT-6c" transform="translate(467.652344 0)"/>
     <use xlink:href="#TimesNewRomanPS-BoldMT-65" transform="translate(495.435547 0)"/>
     <use xlink:href="#TimesNewRomanPS-BoldMT-20" transform="translate(539.820312 0)"/>
     <use xlink:href="#TimesNewRomanPS-BoldMT-77" transform="translate(564.820312 0)"/>
     <use xlink:href="#TimesNewRomanPS-BoldMT-69" transform="translate(637.037109 0)"/>
     <use xlink:href="#TimesNewRomanPS-BoldMT-6e" transform="translate(664.820312 0)"/>
     <use xlink:href="#TimesNewRomanPS-BoldMT-6e" transform="translate(720.435547 0)"/>
     <use xlink:href="#TimesNewRomanPS-BoldMT-65" transform="translate(776.050781 0)"/>
     <use xlink:href="#TimesNewRomanPS-BoldMT-72" transform="translate(820.435547 0)"/>
     <use xlink:href="#TimesNewRomanPS-BoldMT-20" transform="translate(863.070312 0)"/>
     <use xlink:href="#TimesNewRomanPS-BoldMT-69" transform="translate(888.070312 0)"/>
     <use xlink:href="#TimesNewRomanPS-BoldMT-73" transform="translate(915.853516 0)"/>
     <use xlink:href="#TimesNewRomanPS-BoldMT-20" transform="translate(954.769531 0)"/>
     <use xlink:href="#TimesNewRomanPS-BoldMT-63" transform="translate(979.769531 0)"/>
     <use xlink:href="#TimesNewRomanPS-BoldMT-6f" transform="translate(1024.154297 0)"/>
     <use xlink:href="#TimesNewRomanPS-BoldMT-6e" transform="translate(1074.154297 0)"/>
     <use xlink:href="#TimesNewRomanPS-BoldMT-64" transform="translate(1129.769531 0)"/>
     <use xlink:href="#TimesNewRomanPS-BoldMT-69" transform="translate(1185.384766 0)"/>
     <use xlink:href="#TimesNewRomanPS-BoldMT-74" transform="translate(1213.167969 0)"/>
     <use xlink:href="#TimesNewRomanPS-BoldMT-69" transform="translate(1246.46875 0)"/>
     <use xlink:href="#TimesNewRomanPS-BoldMT-6f" transform="translate(1274.251953 0)"/>
     <use xlink:href="#TimesNewRomanPS-BoldMT-6e" transform="translate(1324.251953 0)"/>
     <use xlink:href="#TimesNewRomanPS-BoldMT-61" transform="translate(1379.867188 0)"/>
     <use xlink:href="#TimesNewRomanPS-BoldMT-6c" transform="translate(1429.867188 0)"/>
     <use xlink:href="#TimesNewRomanPS-BoldMT-20" transform="translate(1457.650391 0)"/>
     <use xlink:href="#TimesNewRomanPS-BoldMT-6f" transform="translate(1482.650391 0)"/>
     <use xlink:href="#TimesNewRomanPS-BoldMT-6e" transform="translate(1532.650391 0)"/>
     <use xlink:href="#TimesNewRomanPS-BoldMT-20" transform="translate(1588.265625 0)"/>
     <use xlink:href="#TimesNewRomanPS-BoldMT-63" transform="translate(1613.265625 0)"/>
     <use xlink:href="#TimesNewRomanPS-BoldMT-6f" transform="translate(1657.650391 0)"/>
     <use xlink:href="#TimesNewRomanPS-BoldMT-6e" transform="translate(1707.650391 0)"/>
     <use xlink:href="#TimesNewRomanPS-BoldMT-66" transform="translate(1763.265625 0)"/>
     <use xlink:href="#TimesNewRomanPS-BoldMT-6f" transform="translate(1796.566406 0)"/>
     <use xlink:href="#TimesNewRomanPS-BoldMT-72" transform="translate(1846.566406 0)"/>
     <use xlink:href="#TimesNewRomanPS-BoldMT-6d" transform="translate(1890.951172 0)"/>
     <use xlink:href="#TimesNewRomanPS-BoldMT-61" transform="translate(1974.251953 0)"/>
     <use xlink:href="#TimesNewRomanPS-BoldMT-6e" transform="translate(2024.251953 0)"/>
     <use xlink:href="#TimesNewRomanPS-BoldMT-63" transform="translate(2079.867188 0)"/>
     <use xlink:href="#TimesNewRomanPS-BoldMT-65" transform="translate(2124.251953 0)"/>
     <use xlink:href="#TimesNewRomanPS-BoldMT-2c" transform="translate(2168.636719 0)"/>
     <use xlink:href="#TimesNewRomanPS-BoldMT-20" transform="translate(2193.636719 0)"/>
     <use xlink:href="#TimesNewRomanPS-BoldMT-77" transform="translate(2218.636719 0)"/>
     <use xlink:href="#TimesNewRomanPS-BoldMT-6f" transform="translate(2290.853516 0)"/>
     <use xlink:href="#TimesNewRomanPS-BoldMT-72" transform="translate(2340.853516 0)"/>
     <use xlink:href="#TimesNewRomanPS-BoldMT-6b" transform="translate(2385.238281 0)"/>
     <use xlink:href="#TimesNewRomanPS-BoldMT-6c" transform="translate(2440.853516 0)"/>
     <use xlink:href="#TimesNewRomanPS-BoldMT-6f" transform="translate(2468.636719 0)"/>
     <use xlink:href="#TimesNewRomanPS-BoldMT-61" transform="translate(2518.636719 0)"/>
     <use xlink:href="#TimesNewRomanPS-BoldMT-64" transform="translate(2568.636719 0)"/>
     <use xlink:href="#TimesNewRomanPS-BoldMT-2c" transform="translate(2624.251953 0)"/>
     <use xlink:href="#TimesNewRomanPS-BoldMT-20" transform="translate(2649.251953 0)"/>
     <use xlink:href="#TimesNewRomanPS-BoldMT-6f" transform="translate(2674.251953 0)"/>
     <use xlink:href="#TimesNewRomanPS-BoldMT-62" transform="translate(2724.251953 0)"/>
     <use xlink:href="#TimesNewRomanPS-BoldMT-6a" transform="translate(2779.867188 0)"/>
     <use xlink:href="#TimesNewRomanPS-BoldMT-65" transform="translate(2813.167969 0)"/>
     <use xlink:href="#TimesNewRomanPS-BoldMT-63" transform="translate(2857.552734 0)"/>
     <use xlink:href="#TimesNewRomanPS-BoldMT-74" transform="translate(2901.9375 0)"/>
     <use xlink:href="#TimesNewRomanPS-BoldMT-69" transform="translate(2935.238281 0)"/>
     <use xlink:href="#TimesNewRomanPS-BoldMT-76" transform="translate(2963.021484 0)"/>
     <use xlink:href="#TimesNewRomanPS-BoldMT-65" transform="translate(3013.021484 0)"/>
     <use xlink:href="#TimesNewRomanPS-BoldMT-2c" transform="translate(3057.40625 0)"/>
     <use xlink:href="#TimesNewRomanPS-BoldMT-20" transform="translate(3082.40625 0)"/>
     <use xlink:href="#TimesNewRomanPS-BoldMT-62" transform="translate(3107.40625 0)"/>
     <use xlink:href="#TimesNewRomanPS-BoldMT-75" transform="translate(3163.021484 0)"/>
     <use xlink:href="#TimesNewRomanPS-BoldMT-64" transform="translate(3218.636719 0)"/>
     <use xlink:href="#TimesNewRomanPS-BoldMT-67" transform="translate(3274.251953 0)"/>
     <use xlink:href="#TimesNewRomanPS-BoldMT-65" transform="translate(3324.251953 0)"/>
     <use xlink:href="#TimesNewRomanPS-BoldMT-74" transform="translate(3368.636719 0)"/>
     <use xlink:href="#TimesNewRomanPS-BoldMT-2c" transform="translate(3401.9375 0)"/>
    </g>
    <!-- and audit margins. -->
    <g style="fill: #1f2933" transform="translate(166.758875 229.57119) scale(0.08 -0.08)">
     <defs>
      <path id="TimesNewRomanPS-BoldMT-2e" d="M 800 963 
Q 1019 963 1170 809 
Q 1322 656 1322 441 
Q 1322 225 1169 73 
Q 1016 -78 800 -78 
Q 584 -78 432 73 
Q 281 225 281 441 
Q 281 656 432 809 
Q 584 963 800 963 
z
" transform="scale(0.015625)"/>
     </defs>
     <use xlink:href="#TimesNewRomanPS-BoldMT-61"/>
     <use xlink:href="#TimesNewRomanPS-BoldMT-6e" transform="translate(50 0)"/>
     <use xlink:href="#TimesNewRomanPS-BoldMT-64" transform="translate(105.615234 0)"/>
     <use xlink:href="#TimesNewRomanPS-BoldMT-20" transform="translate(161.230469 0)"/>
     <use xlink:href="#TimesNewRomanPS-BoldMT-61" transform="translate(186.230469 0)"/>
     <use xlink:href="#TimesNewRomanPS-BoldMT-75" transform="translate(236.230469 0)"/>
     <use xlink:href="#TimesNewRomanPS-BoldMT-64" transform="translate(291.845703 0)"/>
     <use xlink:href="#TimesNewRomanPS-BoldMT-69" transform="translate(347.460938 0)"/>
     <use xlink:href="#TimesNewRomanPS-BoldMT-74" transform="translate(375.244141 0)"/>
     <use xlink:href="#TimesNewRomanPS-BoldMT-20" transform="translate(408.544922 0)"/>
     <use xlink:href="#TimesNewRomanPS-BoldMT-6d" transform="translate(433.544922 0)"/>
     <use xlink:href="#TimesNewRomanPS-BoldMT-61" transform="translate(516.845703 0)"/>
     <use xlink:href="#TimesNewRomanPS-BoldMT-72" transform="translate(566.845703 0)"/>
     <use xlink:href="#TimesNewRomanPS-BoldMT-67" transform="translate(611.230469 0)"/>
     <use xlink:href="#TimesNewRomanPS-BoldMT-69" transform="translate(661.230469 0)"/>
     <use xlink:href="#TimesNewRomanPS-BoldMT-6e" transform="translate(689.013672 0)"/>
     <use xlink:href="#TimesNewRomanPS-BoldMT-73" transform="translate(744.628906 0)"/>
     <use xlink:href="#TimesNewRomanPS-BoldMT-2e" transform="translate(783.544922 0)"/>
    </g>
   </g>
  </g>
 </g>
 <defs>
  <clipPath id="pf16d9aa85c">
   <rect x="1.8" y="1.8" width="394.599" height="230.076"/>
  </clipPath>
 </defs>
</svg>
